<svg width="1220" height="242" viewBox="0 0 1220 242" fill="none" xmlns="http://www.w3.org/2000/svg">
<g clip-path="url(#clip0)">
<path d="M38.4616 42.3077V100H61.5385V42.3077H76.9231L50 0L23.0769 42.3077H38.4616Z" fill="#12253C"/>
</g>
<path d="M598.462 38.4615H621.538V100H644.615V34.6154C644.615 23.0769 636.923 15.3846 625.385 15.3846H598.462V0L560 26.5913L598.462 53.8462V38.4615Z" fill="#12253C"/>
<path d="M761.538 38.4615H738.462V100H715.385V34.6154C715.385 23.0769 723.077 15.3846 734.615 15.3846H761.538V0L800 26.5913L761.538 53.8462V38.4615Z" fill="#12253C"/>
<g clip-path="url(#clip1)">
<path d="M38.4615 188.154V180.462C38.4615 167.071 39.9747 164.958 52.0618 165.077C64.1489 165.196 65.3846 166.791 65.3846 180.462V242H88.4615V180.462C88.4615 151.953 79.6725 143.057 52.0614 142.962C24.4503 142.866 15.3846 151.415 15.3846 180.462V188.154H0L26.9231 226.615L53.8462 188.154H38.4615Z" fill="#12253C"/>
</g>
<g clip-path="url(#clip2)">
<path d="M201.538 187.154V179.462C201.538 166.071 200.025 163.958 187.938 164.077C175.851 164.196 174.615 165.791 174.615 179.462V241H151.538V179.462C151.538 150.953 160.328 142.057 187.939 141.962C215.55 141.866 224.615 150.415 224.615 179.462V187.154H240L213.077 225.615L186.154 187.154H201.538Z" fill="#12253C"/>
</g>
<path d="M610 241H633.077C633.077 171.769 656.154 141 656.154 141H629.231C629.231 141 610 164.077 610 241Z" fill="url(#paint0_linear)"/>
<path d="M590.769 175.615C598.462 183.308 610 198.692 610 225.615V241H633.077V225.615C633.077 198.692 621.538 175.615 606.154 160.231L617.692 148.692L571.538 141L579.231 187.154L590.769 175.615Z" fill="#12253C"/>
<path d="M750 241H726.923C726.923 171.769 703.846 141 703.846 141H730.769C730.769 141 750 164.077 750 241Z" fill="url(#paint1_linear)"/>
<path d="M769.231 175.615C761.538 183.308 750 198.692 750 225.615V241H726.923V225.615C726.923 198.692 738.462 175.615 753.846 160.231L742.308 148.692L788.462 141L780.769 187.154L769.231 175.615Z" fill="#12253C"/>
<g clip-path="url(#clip3)">
<path d="M901.538 241H924.615C924.615 171.769 924.615 141 924.615 141H901.538C901.538 141 901.538 164.077 901.538 241Z" fill="url(#paint2_linear)"/>
<path d="M874.615 187.154C893.846 187.154 901.538 191 901.538 225.615V241H924.615V225.615C924.615 179.462 909.231 164.077 874.615 164.077V148.692L840 175.615L874.615 202.538V187.154Z" fill="#12253C"/>
</g>
<g clip-path="url(#clip4)">
<path d="M1018.46 241H995.385C995.385 171.769 995.385 141 995.385 141H1018.46C1018.46 141 1018.46 164.077 1018.46 241Z" fill="url(#paint3_linear)"/>
<path d="M1045.38 187.154C1026.15 187.154 1018.46 191 1018.46 225.615V241H995.385V225.615C995.385 179.462 1010.77 164.077 1045.38 164.077V148.692L1080 175.615L1045.38 202.538V187.154Z" fill="#12253C"/>
</g>
<path d="M870.769 34.6154L886.154 50C890 53.8462 893.846 57.6923 893.846 65.3846V100H916.923V65.3846C916.923 50 909.231 42.3077 901.538 34.6154L886.154 19.2308L897.692 7.69231L851.538 0L859.231 46.1538L870.769 34.6154Z" fill="#12253C"/>
<path d="M1049.23 34.6154L1033.85 50C1030 53.8462 1026.15 57.6923 1026.15 65.3846V100H1003.08V65.3846C1003.08 50 1010.77 42.3077 1018.46 34.6154L1033.85 19.2308L1022.31 7.69231L1068.46 0L1060.77 46.1538L1049.23 34.6154Z" fill="#12253C"/>
<path d="M303.077 179.462L322.308 160.231C337.692 144.846 364.615 152.538 364.615 179.462V241H341.538V179.462C341.538 175.615 341.538 171.769 337.692 175.615L318.462 194.846L330 206.385L283.846 214.077L291.538 167.923L303.077 179.462Z" fill="#12253C"/>
<path d="M496.923 179.462L477.692 160.231C462.308 144.846 435.385 152.538 435.385 179.462V241H458.462V179.462C458.462 175.615 458.462 171.769 462.308 175.615L481.538 194.846L470 206.385L516.154 214.077L508.462 167.923L496.923 179.462Z" fill="#12253C"/>
<g clip-path="url(#clip5)">
<path d="M178.462 42.3077V50.5495C178.462 65.3846 159.231 61.5385 159.231 84.6154V100.549L182.308 100V84.6154C182.308 73.0769 197.692 73.0769 197.692 84.6154V100H220.769V84.6154C220.769 61.5385 201.538 65.3846 201.538 50V42.3077H216.923L190 0L163.077 42.3077H178.462Z" fill="#12253C"/>
</g>
<path d="M330 7.69232C308.758 7.69232 291.538 24.9121 291.538 46.1539C291.538 62.4955 302.165 75.1982 316.538 80.7692C316.538 69.2308 320.385 63.4615 326.154 61.5385C318.658 60.5073 314.615 53.9326 314.615 46.1539C314.615 37.6572 321.503 30.7692 330 30.7692C338.497 30.7692 345.385 37.6572 345.385 46.1539H368.462C368.462 24.9121 351.242 7.69232 330 7.69232Z" fill="url(#paint4_linear)"/>
<path d="M356.923 30.769L333.846 53.8459H343.702C341.572 58.4435 337.712 61.5382 333.846 61.5382C324.231 61.5382 318.462 69.2305 318.462 76.9228V99.9997H341.538V82.8483C354.755 78.698 364.885 67.6055 367.68 53.8459H380L356.923 30.769Z" fill="#12253C"/>
<path d="M470 7.69232C491.242 7.69232 508.462 24.9121 508.462 46.1539C508.462 62.4955 497.835 75.1982 483.462 80.7692C483.462 69.2308 479.615 63.4615 473.846 61.5385C481.342 60.5073 485.385 53.9326 485.385 46.1539C485.385 37.6572 478.497 30.7692 470 30.7692C461.503 30.7692 454.615 37.6572 454.615 46.1539H431.538C431.538 24.9121 448.758 7.69232 470 7.69232Z" fill="url(#paint5_linear)"/>
<path d="M443.077 30.769L466.154 53.8459H456.298C458.428 58.4435 462.288 61.5382 466.154 61.5382C475.769 61.5382 481.538 69.2305 481.538 76.9228V99.9997H458.462V82.8483C445.245 78.698 435.115 67.6055 432.32 53.8459H420L443.077 30.769Z" fill="#12253C"/>
<g clip-path="url(#clip6)">
<path d="M1164.78 0V16.6466H1150.73C1142.96 16.6466 1136.61 22.9922 1136.61 30.7692V84.6154C1136.61 92.3924 1142.96 98.726 1150.73 98.726H1189.19C1196.97 98.726 1203.31 92.3924 1203.31 84.6154V30.7692C1203.31 22.9922 1196.97 16.6466 1189.19 16.6466H1175.49V0H1164.78ZM1152.27 23.3413H1187.66C1192.66 23.3413 1196.61 27.3001 1196.61 32.3077V83.0769C1196.61 88.0845 1192.66 92.0313 1187.66 92.0313H1152.27C1147.26 92.0313 1143.31 88.0845 1143.31 83.0769V32.3077C1143.31 27.3001 1147.26 23.3413 1152.27 23.3413ZM1152.67 32.6923V61.5385H1144.98L1158.46 84.6157L1171.9 61.5385H1164.21V32.6923H1152.67ZM1181.54 30.7695L1168.05 53.8462H1175.75V82.6923H1187.28V53.8462H1194.98L1181.54 30.7695Z" fill="#12253C"/>
</g>
<defs>
<linearGradient id="paint0_linear" x1="620" y1="212" x2="640.769" y2="141" gradientUnits="userSpaceOnUse">
<stop stop-color="#12253C"/>
<stop offset="1" stop-color="#12253C" stop-opacity="0"/>
</linearGradient>
<linearGradient id="paint1_linear" x1="740" y1="212" x2="719.231" y2="141" gradientUnits="userSpaceOnUse">
<stop stop-color="#12253C"/>
<stop offset="1" stop-color="#12253C" stop-opacity="0"/>
</linearGradient>
<linearGradient id="paint2_linear" x1="913" y1="202" x2="913" y2="141" gradientUnits="userSpaceOnUse">
<stop stop-color="#12253C"/>
<stop offset="1" stop-color="#12253C" stop-opacity="0"/>
</linearGradient>
<linearGradient id="paint3_linear" x1="1007" y1="202" x2="1007" y2="141" gradientUnits="userSpaceOnUse">
<stop stop-color="#12253C"/>
<stop offset="1" stop-color="#12253C" stop-opacity="0"/>
</linearGradient>
<linearGradient id="paint4_linear" x1="302.346" y1="18.5" x2="341.538" y2="57.6923" gradientUnits="userSpaceOnUse">
<stop stop-color="#12253C"/>
<stop offset="1" stop-color="#12253C" stop-opacity="0"/>
</linearGradient>
<linearGradient id="paint5_linear" x1="498.154" y1="18" x2="458.462" y2="57.6923" gradientUnits="userSpaceOnUse">
<stop stop-color="#12253C"/>
<stop offset="1" stop-color="#12253C" stop-opacity="0"/>
</linearGradient>
<clipPath id="clip0">
<rect width="100" height="100" fill="white"/>
</clipPath>
<clipPath id="clip1">
<rect width="100" height="100" fill="white" transform="translate(0 142)"/>
</clipPath>
<clipPath id="clip2">
<rect width="100" height="100" fill="white" transform="matrix(-1 0 0 1 240 141)"/>
</clipPath>
<clipPath id="clip3">
<rect width="100" height="100" fill="white" transform="translate(840 141)"/>
</clipPath>
<clipPath id="clip4">
<rect width="100" height="100" fill="white" transform="matrix(-1 0 0 1 1080 141)"/>
</clipPath>
<clipPath id="clip5">
<rect width="100" height="100" fill="white" transform="translate(140)"/>
</clipPath>
<clipPath id="clip6">
<rect width="100" height="100" fill="white" transform="translate(1120)"/>
</clipPath>
</defs>
</svg>
