<svg width="2180" height="292" viewBox="0 0 2180 292" fill="none" xmlns="http://www.w3.org/2000/svg">
<rect width="2180" height="292" fill="white"/>
<g clip-path="url(#clip0)">
<path fill-rule="evenodd" clip-rule="evenodd" d="M14.6447 236.352C-4.88155 216.821 -4.88155 185.156 14.6447 165.626C34.1832 146.125 65.8168 146.125 85.3553 165.626C104.882 185.156 104.882 216.821 85.3553 236.352C65.8291 255.883 34.1709 255.883 14.6447 236.352ZM68.9946 222.157L52.3834 169.542C52.0559 168.502 51.0923 167.794 50.0021 167.793C48.9119 167.791 47.9465 168.497 47.6164 169.536L31.0053 222.157C30.6599 223.255 31.109 224.447 32.0932 225.045C33.0773 225.642 34.342 225.49 35.1566 224.676L49.7053 210.124C49.868 209.962 50.1318 209.962 50.2945 210.124L64.8433 224.676C65.6584 225.492 66.9254 225.644 67.9103 225.045C68.0824 224.941 68.2407 224.816 68.3817 224.673C69.0384 224.014 69.2745 223.044 68.9946 222.157Z" fill="#12253C"/>
</g>
<g clip-path="url(#clip1)">
<path fill-rule="evenodd" clip-rule="evenodd" d="M144.648 165.645C164.179 146.118 195.844 146.118 215.374 165.645C234.875 185.183 234.875 216.817 215.374 236.355C195.844 255.882 164.179 255.882 144.648 236.355C125.117 216.829 125.117 185.171 144.648 165.645ZM158.843 219.995L211.458 203.383C212.498 203.056 213.206 202.092 213.207 201.002C213.208 199.912 212.503 198.946 211.464 198.616L158.843 182.005C157.745 181.66 156.553 182.109 155.955 183.093C155.358 184.077 155.51 185.342 156.324 186.157L170.876 200.705C171.038 200.868 171.038 201.132 170.876 201.295L156.324 215.843C155.508 216.658 155.356 217.925 155.955 218.91C156.059 219.082 156.184 219.241 156.327 219.382C156.986 220.038 157.956 220.274 158.843 219.995Z" fill="#12253C"/>
</g>
<g clip-path="url(#clip2)">
<path fill-rule="evenodd" clip-rule="evenodd" d="M345.355 165.648C364.882 185.179 364.882 216.844 345.355 236.374C325.817 255.875 294.183 255.875 274.645 236.374C255.118 216.844 255.118 185.179 274.645 165.648C294.171 146.117 325.829 146.117 345.355 165.648ZM291.005 179.843L307.617 232.458C307.944 233.498 308.908 234.206 309.998 234.207C311.088 234.209 312.053 233.503 312.384 232.464L328.995 179.843C329.34 178.745 328.891 177.553 327.907 176.955C326.923 176.358 325.658 176.51 324.843 177.324L310.295 191.876C310.132 192.038 309.868 192.038 309.705 191.876L295.157 177.324C294.342 176.508 293.075 176.356 292.09 176.955C291.918 177.059 291.759 177.184 291.618 177.327C290.962 177.986 290.726 178.956 291.005 179.843Z" fill="#12253C"/>
</g>
<g clip-path="url(#clip3)">
<path fill-rule="evenodd" clip-rule="evenodd" d="M475.352 236.355C455.821 255.882 424.156 255.882 404.626 236.355C385.125 216.817 385.125 185.183 404.626 165.645C424.156 146.118 455.821 146.118 475.352 165.645C494.883 185.171 494.883 216.829 475.352 236.355ZM461.157 182.005L408.542 198.617C407.502 198.944 406.794 199.908 406.793 200.998C406.791 202.088 407.497 203.054 408.536 203.384L461.157 219.995C462.255 220.34 463.447 219.891 464.045 218.907C464.642 217.923 464.49 216.658 463.676 215.843L449.124 201.295C448.962 201.132 448.962 200.868 449.124 200.706L463.676 186.157C464.492 185.342 464.644 184.075 464.045 183.09C463.941 182.918 463.816 182.759 463.673 182.618C463.014 181.962 462.044 181.726 461.157 182.005Z" fill="#12253C"/>
</g>
<g clip-path="url(#clip4)">
<path fill-rule="evenodd" clip-rule="evenodd" d="M520 201C520 173.386 542.386 151 570 151C597.602 151.03 619.97 173.398 620 201C620 228.614 597.614 251 570 251C542.386 251 520 228.614 520 201ZM568.467 229.396L593.917 180.454C594.42 179.487 594.239 178.305 593.469 177.534C592.699 176.762 591.518 176.578 590.55 177.079L541.604 202.533C540.583 203.066 540.058 204.226 540.332 205.344C540.605 206.462 541.607 207.249 542.758 207.25L563.333 207.25C563.563 207.25 563.75 207.436 563.75 207.667L563.75 228.242C563.75 229.394 564.538 230.398 565.658 230.671C565.853 230.719 566.053 230.743 566.254 230.742C567.185 230.74 568.037 230.221 568.467 229.396Z" fill="#12253C"/>
</g>
<g clip-path="url(#clip5)">
<path fill-rule="evenodd" clip-rule="evenodd" d="M700 151C727.614 151 750 173.386 750 201C749.97 228.602 727.602 250.97 700 251C672.386 251 650 228.614 650 201C650 173.386 672.386 151 700 151ZM671.604 199.467L720.546 224.917C721.513 225.42 722.695 225.239 723.466 224.469C724.238 223.699 724.422 222.518 723.921 221.55L698.467 172.604C697.934 171.583 696.774 171.058 695.656 171.332C694.538 171.605 693.751 172.607 693.75 173.758L693.75 194.333C693.75 194.563 693.564 194.75 693.333 194.75L672.758 194.75C671.606 194.75 670.602 195.538 670.329 196.658C670.281 196.853 670.257 197.053 670.258 197.254C670.26 198.185 670.779 199.037 671.604 199.467Z" fill="#12253C"/>
</g>
<g clip-path="url(#clip6)">
<path fill-rule="evenodd" clip-rule="evenodd" d="M880 201C880 228.614 857.614 251 830 251C802.398 250.97 780.03 228.602 780 201C780 173.386 802.386 151 830 151C857.614 151 880 173.386 880 201ZM831.533 172.604L806.083 221.546C805.58 222.513 805.761 223.695 806.531 224.466C807.301 225.238 808.482 225.422 809.45 224.921L858.396 199.467C859.417 198.934 859.942 197.774 859.668 196.656C859.395 195.538 858.393 194.751 857.242 194.75L836.667 194.75C836.437 194.75 836.25 194.564 836.25 194.333L836.25 173.758C836.25 172.606 835.462 171.602 834.342 171.329C834.147 171.281 833.947 171.257 833.746 171.258C832.815 171.26 831.963 171.779 831.533 172.604Z" fill="#12253C"/>
</g>
<g clip-path="url(#clip7)">
<path fill-rule="evenodd" clip-rule="evenodd" d="M960 251C932.386 251 910 228.614 910 201C910.03 173.398 932.398 151.03 960 151C987.614 151 1010 173.386 1010 201C1010 228.614 987.614 251 960 251ZM988.396 202.533L939.454 177.083C938.487 176.58 937.305 176.761 936.534 177.531C935.762 178.301 935.578 179.482 936.079 180.45L961.533 229.396C962.066 230.417 963.226 230.942 964.344 230.668C965.462 230.395 966.249 229.393 966.25 228.242L966.25 207.667C966.25 207.437 966.436 207.25 966.667 207.25L987.242 207.25C988.394 207.25 989.398 206.462 989.671 205.342C989.719 205.147 989.743 204.947 989.742 204.746C989.74 203.815 989.221 202.963 988.396 202.533Z" fill="#12253C"/>
</g>
<g clip-path="url(#clip8)">
<path d="M35.4615 62.3077C37.1184 62.3077 38.4615 63.6508 38.4615 65.3077V117C38.4615 118.657 39.8047 120 41.4615 120H58.5384C60.1953 120 61.5384 118.657 61.5384 117V65.3077C61.5384 63.6508 62.8816 62.3077 64.5384 62.3077H71.458C73.8253 62.3077 75.26 59.6942 73.989 57.6971L52.531 23.9773C51.3521 22.1248 48.6479 22.1248 47.469 23.9773L26.0109 57.6971C24.74 59.6942 26.1747 62.3077 28.5419 62.3077H35.4615Z" fill="#12253C"/>
</g>
<path d="M1078.46 61.4615C1078.46 59.8047 1079.8 58.4615 1081.46 58.4615H1098.54C1100.2 58.4615 1101.54 59.8047 1101.54 61.4615V117C1101.54 118.657 1102.88 120 1104.54 120H1121.62C1123.27 120 1124.62 118.657 1124.62 117V54.6154C1124.62 43.0769 1116.92 35.3846 1105.38 35.3846H1081.46C1079.8 35.3846 1078.46 34.0415 1078.46 32.3846V25.7213C1078.46 23.3022 1075.75 21.8779 1073.76 23.2537L1043.53 44.1539C1041.81 45.3383 1041.8 47.8651 1043.5 49.0693L1073.73 70.4911C1075.71 71.899 1078.46 70.4784 1078.46 68.0434V61.4615Z" fill="#12253C"/>
<path d="M1361.54 61.4615C1361.54 59.8047 1360.2 58.4615 1358.54 58.4615H1341.46C1339.8 58.4615 1338.46 59.8047 1338.46 61.4615V117C1338.46 118.657 1337.12 120 1335.46 120H1318.38C1316.73 120 1315.38 118.657 1315.38 117V54.6154C1315.38 43.0769 1323.08 35.3846 1334.62 35.3846H1358.54C1360.2 35.3846 1361.54 34.0415 1361.54 32.3846V25.7213C1361.54 23.3022 1364.25 21.8779 1366.24 23.2537L1396.47 44.1539C1398.19 45.3383 1398.2 47.8651 1396.5 49.0693L1366.27 70.4911C1364.29 71.899 1361.54 70.4784 1361.54 68.0434V61.4615Z" fill="#12253C"/>
<g clip-path="url(#clip9)">
<path d="M171.462 66.1539C169.805 66.1539 168.462 64.8107 168.462 63.1539V58.4616C168.462 45.0713 169.975 42.9583 182.062 43.0769C194.149 43.1956 195.385 44.7913 195.385 58.4616V117C195.385 118.657 196.728 120 198.385 120H215.462C217.118 120 218.462 118.657 218.462 117V58.4616C218.462 29.9532 209.672 21.0571 182.061 20.9618C154.45 20.8664 145.385 29.4149 145.385 58.4616V63.1539C145.385 64.8107 144.041 66.1539 142.385 66.1539H135.762C133.335 66.1539 131.912 68.8859 133.304 70.8742L154.465 101.104C155.66 102.811 158.186 102.811 159.381 101.104L180.542 70.8743C181.934 68.8859 180.511 66.1539 178.084 66.1539H171.462Z" fill="#12253C"/>
</g>
<g clip-path="url(#clip10)">
<path d="M318.538 66.1539C320.195 66.1539 321.538 64.8107 321.538 63.1539V58.4616C321.538 45.0713 320.025 42.9583 307.938 43.0769C295.851 43.1956 294.615 44.7913 294.615 58.4616V117C294.615 118.657 293.272 120 291.615 120H274.538C272.882 120 271.538 118.657 271.538 117V58.4616C271.538 29.9532 280.328 21.0571 307.939 20.9618C335.55 20.8664 344.615 29.4149 344.615 58.4616V63.1539C344.615 64.8107 345.959 66.1539 347.615 66.1539H354.238C356.665 66.1539 358.088 68.8859 356.696 70.8742L335.535 101.104C334.34 102.811 331.814 102.811 330.619 101.104L309.458 70.8743C308.066 68.8859 309.489 66.1539 311.916 66.1539H318.538Z" fill="#12253C"/>
</g>
<path d="M1220.01 116.962C1220 118.619 1221.34 120 1223 120H1240.08C1241.73 120 1243.08 118.629 1243.09 116.972C1243.6 65.6821 1256.8 36.1439 1263 25.0716C1264.21 22.9143 1262.63 20 1260.15 20H1240.64C1239.75 20 1238.9 20.3988 1238.41 21.1374C1234.79 26.5135 1220.44 51.8869 1220.01 116.962Z" fill="url(#paint0_linear)"/>
<path d="M1198.65 56.7367C1199.82 55.5651 1201.72 55.5573 1202.84 56.7823C1210.37 65.0502 1220 80.0168 1220 104.615V117C1220 118.657 1221.34 120 1223 120H1240.08C1241.73 120 1243.08 118.657 1243.08 117V104.615C1243.08 78.922 1232.57 56.7315 1218.24 41.3867C1217.11 40.1758 1217.1 38.281 1218.28 37.1094L1223.57 31.8144C1225.3 30.089 1224.35 27.1351 1221.94 26.7339L1185.68 20.6905C1183.65 20.3521 1181.89 22.1124 1182.23 24.1429L1188.27 60.4036C1188.67 62.8105 1191.63 63.7571 1193.35 62.0317L1198.65 56.7367Z" fill="#12253C"/>
<path d="M1479.99 116.962C1480 118.619 1478.66 120 1477 120H1459.92C1458.27 120 1456.92 118.629 1456.91 116.972C1456.4 65.6821 1443.2 36.1439 1437 25.0716C1435.79 22.9143 1437.37 20 1439.85 20H1459.36C1460.25 20 1461.1 20.3988 1461.59 21.1374C1465.21 26.5135 1479.56 51.8869 1479.99 116.962Z" fill="url(#paint1_linear)"/>
<path d="M1501.35 56.7367C1500.18 55.5651 1498.28 55.5573 1497.16 56.7823C1489.63 65.0502 1480 80.0168 1480 104.615V117C1480 118.657 1478.66 120 1477 120H1459.92C1458.27 120 1456.92 118.657 1456.92 117V104.615C1456.92 78.922 1467.43 56.7315 1481.76 41.3867C1482.89 40.1758 1482.9 38.281 1481.72 37.1094L1476.43 31.8144C1474.7 30.089 1475.65 27.1351 1478.06 26.7339L1514.32 20.6905C1516.35 20.3521 1518.11 22.1124 1517.77 24.1429L1511.73 60.4036C1511.33 62.8105 1508.37 63.7571 1506.65 62.0317L1501.35 56.7367Z" fill="#12253C"/>
<g clip-path="url(#clip11)">
<path d="M1621.54 116.962C1621.54 118.619 1622.88 120 1624.54 120H1641.62C1643.27 120 1644.62 118.629 1644.62 116.972C1644.62 62.0187 1644.62 32.0355 1644.62 22.9805C1644.62 21.3237 1643.27 20 1641.62 20H1624.54C1622.88 20 1621.54 21.3233 1621.54 22.9801C1621.54 31.1703 1621.54 57.4821 1621.54 116.962Z" fill="url(#paint2_linear)"/>
<path d="M1594.62 69.1539C1594.62 67.497 1595.97 66.1462 1597.62 66.1915C1614.65 66.6572 1621.54 71.8636 1621.54 104.615V117C1621.54 118.657 1622.88 120 1624.54 120H1641.62C1643.27 120 1644.62 118.657 1644.62 117V104.615C1644.62 59.8183 1630.12 44.008 1597.62 43.1172C1595.96 43.0718 1594.62 41.7338 1594.62 40.0769V33.8262C1594.62 31.3298 1591.74 29.9255 1589.77 31.4582L1563.04 52.2473C1561.5 53.4484 1561.5 55.7824 1563.04 56.9835L1589.77 77.7726C1591.74 79.3053 1594.62 77.901 1594.62 75.4046V69.1539Z" fill="#12253C"/>
</g>
<g clip-path="url(#clip12)">
<path d="M1858.46 116.962C1858.46 118.619 1857.12 120 1855.46 120H1838.38C1836.73 120 1835.38 118.629 1835.38 116.972C1835.38 62.0187 1835.38 32.0355 1835.38 22.9805C1835.38 21.3237 1836.73 20 1838.38 20H1855.46C1857.12 20 1858.46 21.3233 1858.46 22.9801C1858.46 31.1703 1858.46 57.4821 1858.46 116.962Z" fill="url(#paint3_linear)"/>
<path d="M1885.38 69.1539C1885.38 67.497 1884.03 66.1462 1882.38 66.1915C1865.35 66.6572 1858.46 71.8636 1858.46 104.615V117C1858.46 118.657 1857.12 120 1855.46 120H1838.38C1836.73 120 1835.38 118.657 1835.38 117V104.615C1835.38 59.8183 1849.88 44.008 1882.38 43.1172C1884.04 43.0718 1885.38 41.7338 1885.38 40.0769V33.8262C1885.38 31.3298 1888.26 29.9255 1890.23 31.4582L1916.96 52.2473C1918.5 53.4484 1918.5 55.7824 1916.96 56.9835L1890.23 77.7726C1888.26 79.3053 1885.38 77.901 1885.38 75.4046V69.1539Z" fill="#12253C"/>
</g>
<path d="M1718.65 56.7367C1719.82 55.5651 1721.72 55.5651 1722.89 56.7367L1736.15 70C1740 73.8462 1743.85 77.6923 1743.85 85.3846V117C1743.85 118.657 1745.19 120 1746.85 120H1763.92C1765.58 120 1766.92 118.657 1766.92 117V85.3846C1766.92 70 1759.23 62.3077 1751.54 54.6154L1738.28 41.3521C1737.1 40.1805 1737.1 38.281 1738.28 37.1094L1743.57 31.8144C1745.3 30.089 1744.35 27.1351 1741.94 26.7339L1705.68 20.6905C1703.65 20.3521 1701.89 22.1124 1702.23 24.1429L1708.27 60.4036C1708.67 62.8105 1711.63 63.7571 1713.35 62.0317L1718.65 56.7367Z" fill="#12253C"/>
<path d="M2021.35 56.7367C2020.18 55.5651 2018.28 55.5651 2017.11 56.7367L2003.85 70C2000 73.8462 1996.15 77.6923 1996.15 85.3846V117C1996.15 118.657 1994.81 120 1993.15 120H1976.08C1974.42 120 1973.08 118.657 1973.08 117V85.3846C1973.08 70 1980.77 62.3077 1988.46 54.6154L2001.72 41.3521C2002.9 40.1805 2002.9 38.281 2001.72 37.1094L1996.43 31.8144C1994.7 30.089 1995.65 27.1351 1998.06 26.7339L2034.32 20.6905C2036.35 20.3521 2038.11 22.1124 2037.77 24.1429L2031.73 60.4036C2031.33 62.8105 2028.37 63.7571 2026.65 62.0317L2021.35 56.7367Z" fill="#12253C"/>
<path d="M540.956 56.3402C542.127 57.5118 544.027 57.5118 545.198 56.3402L562.308 39.2308C577.692 23.8461 604.615 31.5384 604.615 58.4615V117C604.615 118.657 603.272 120 601.615 120H584.538C582.882 120 581.538 118.657 581.538 117V58.4615C581.538 54.6154 581.538 50.7692 577.692 54.6154L560.583 71.7248C559.411 72.8964 559.411 74.7959 560.583 75.9675L565.878 81.2625C567.603 82.9879 566.657 85.9418 564.25 86.343L527.989 92.3864C525.959 92.7248 524.198 90.9645 524.537 88.9341L530.58 52.6733C530.981 50.2664 533.935 49.3198 535.661 51.0452L540.956 56.3402Z" fill="#12253C"/>
<path d="M859.044 56.3402C857.873 57.5118 855.973 57.5118 854.802 56.3402L837.692 39.2308C822.308 23.8461 795.385 31.5384 795.385 58.4615V117C795.385 118.657 796.728 120 798.385 120H815.462C817.118 120 818.462 118.657 818.462 117V58.4615C818.462 54.6154 818.462 50.7692 822.308 54.6154L839.417 71.7248C840.589 72.8964 840.589 74.7959 839.417 75.9675L834.122 81.2625C832.397 82.9879 833.343 85.9418 835.75 86.343L872.011 92.3864C874.041 92.7248 875.802 90.9645 875.463 88.9341L869.42 52.6733C869.019 50.2664 866.065 49.3198 864.339 51.0452L859.044 56.3402Z" fill="#12253C"/>
<g clip-path="url(#clip13)">
<path d="M425.462 62.3077C427.118 62.3077 428.462 63.6508 428.462 65.3077V70.5495C428.462 85.3846 409.231 81.5385 409.231 104.615V117.477C409.231 119.162 410.618 120.516 412.302 120.476L429.379 120.07C431.008 120.031 432.308 118.7 432.308 117.071V104.615C432.308 93.0769 447.692 93.0769 447.692 104.615V117C447.692 118.657 449.035 120 450.692 120H467.769C469.426 120 470.769 118.657 470.769 117V104.615C470.769 81.5385 451.538 85.3846 451.538 70V65.3077C451.538 63.6508 452.882 62.3077 454.538 62.3077H461.458C463.825 62.3077 465.26 59.6942 463.989 57.6971L442.531 23.9773C441.352 22.1248 438.648 22.1248 437.469 23.9773L416.011 57.6971C414.74 59.6942 416.175 62.3077 418.542 62.3077H425.462Z" fill="#12253C"/>
</g>
<path d="M700 27.6923C678.758 27.6923 661.538 44.9121 661.538 66.1539C661.538 82.4955 672.165 95.1982 686.538 100.769C686.538 89.2308 690.385 83.4615 696.154 81.5385C688.658 80.5073 684.615 73.9326 684.615 66.1539C684.615 57.6572 691.503 50.7692 700 50.7692C708.497 50.7692 715.385 57.6572 715.385 66.1539H738.462C738.462 44.9121 721.242 27.6923 700 27.6923Z" fill="url(#paint4_linear)"/>
<path d="M729.044 52.8902C727.873 51.7187 725.973 51.7187 724.802 52.8902L708.074 69.6181C706.514 71.1782 707.619 73.8458 709.825 73.8458V73.8458C711.634 73.8458 712.806 75.7277 711.683 77.1459C709.532 79.8627 706.691 81.5381 703.846 81.5381C694.231 81.5381 688.462 89.2305 688.462 96.9228V117C688.462 118.657 689.805 120 691.462 120H708.538C710.195 120 711.538 118.657 711.538 117V105.051C711.538 103.74 712.394 102.592 713.62 102.128C725.059 97.796 733.883 88.1649 737.115 76.2318C737.488 74.8548 738.706 73.8458 740.132 73.8458H742.757C745.43 73.8458 746.769 70.6144 744.879 68.7245L729.044 52.8902Z" fill="#12253C"/>
<path d="M960 27.6923C981.242 27.6923 998.462 44.9121 998.462 66.1539C998.462 82.4955 987.835 95.1982 973.462 100.769C973.462 89.2308 969.615 83.4615 963.846 81.5385C971.342 80.5073 975.385 73.9326 975.385 66.1539C975.385 57.6572 968.497 50.7692 960 50.7692C951.503 50.7692 944.615 57.6572 944.615 66.1539H921.538C921.538 44.9121 938.758 27.6923 960 27.6923Z" fill="url(#paint5_linear)"/>
<path d="M930.956 52.8902C932.127 51.7187 934.027 51.7187 935.198 52.8902L951.926 69.6181C953.486 71.1782 952.381 73.8458 950.175 73.8458V73.8458C948.366 73.8458 947.194 75.7277 948.317 77.1459C950.468 79.8627 953.309 81.5381 956.154 81.5381C965.769 81.5381 971.538 89.2305 971.538 96.9228V117C971.538 118.657 970.195 120 968.538 120H951.462C949.805 120 948.462 118.657 948.462 117V105.051C948.462 103.74 947.606 102.592 946.38 102.128C934.941 97.796 926.117 88.1649 922.885 76.2318C922.512 74.8548 921.294 73.8458 919.868 73.8458H917.243C914.57 73.8458 913.231 70.6144 915.121 68.7245L930.956 52.8902Z" fill="#12253C"/>
<g clip-path="url(#clip14)">
<path d="M2127.78 20C2126.12 20 2124.78 21.3431 2124.78 23V33.6466C2124.78 35.3035 2123.44 36.6466 2121.78 36.6466H2110.73C2102.96 36.6466 2096.61 42.9922 2096.61 50.7692V104.615C2096.61 112.392 2102.96 118.726 2110.73 118.726H2149.19C2156.97 118.726 2163.31 112.392 2163.31 104.615V50.7692C2163.31 42.9922 2156.97 36.6466 2149.19 36.6466H2138.49C2136.84 36.6466 2135.49 35.3035 2135.49 33.6466V23C2135.49 21.3431 2134.15 20 2132.49 20H2127.78ZM2112.27 43.3413H2147.66C2152.66 43.3413 2156.61 47.3001 2156.61 52.3077V103.077C2156.61 108.084 2152.66 112.031 2147.66 112.031H2112.27C2107.26 112.031 2103.31 108.084 2103.31 103.077V52.3077C2103.31 47.3001 2107.26 43.3413 2112.27 43.3413ZM2115.67 52.6923C2114.01 52.6923 2112.67 54.0355 2112.67 55.6923V78.7337C2112.67 80.2827 2111.41 81.5385 2109.86 81.5385V81.5385C2107.7 81.5385 2106.35 83.8885 2107.44 85.7583L2115.87 100.175C2117.03 102.159 2119.89 102.157 2121.05 100.171L2129.44 85.7594C2130.53 83.8874 2129.18 81.5385 2127.01 81.5385V81.5385C2125.46 81.5385 2124.21 80.2813 2124.21 78.7305V55.6923C2124.21 54.0355 2122.86 52.6923 2121.21 52.6923H2115.67ZM2144.13 55.2137C2142.97 53.2284 2140.1 53.2261 2138.94 55.2097L2130.52 69.6263C2129.43 71.4961 2130.77 73.8462 2132.94 73.8462V73.8462C2134.49 73.8462 2135.75 75.1019 2135.75 76.6509V99.6923C2135.75 101.349 2137.09 102.692 2138.75 102.692H2144.28C2145.94 102.692 2147.28 101.349 2147.28 99.6923V76.6541C2147.28 75.1033 2148.54 73.8462 2150.09 73.8462V73.8462C2152.26 73.8462 2153.61 71.4972 2152.52 69.6252L2144.13 55.2137Z" fill="#12253C"/>
</g>
<defs>
<linearGradient id="paint0_linear" x1="1230" y1="91" x2="1250.77" y2="20" gradientUnits="userSpaceOnUse">
<stop stop-color="#12253C"/>
<stop offset="1" stop-color="#12253C" stop-opacity="0"/>
</linearGradient>
<linearGradient id="paint1_linear" x1="1470" y1="91" x2="1449.23" y2="20" gradientUnits="userSpaceOnUse">
<stop stop-color="#12253C"/>
<stop offset="1" stop-color="#12253C" stop-opacity="0"/>
</linearGradient>
<linearGradient id="paint2_linear" x1="1633" y1="81" x2="1633" y2="20" gradientUnits="userSpaceOnUse">
<stop stop-color="#12253C"/>
<stop offset="1" stop-color="#12253C" stop-opacity="0"/>
</linearGradient>
<linearGradient id="paint3_linear" x1="1847" y1="81" x2="1847" y2="20" gradientUnits="userSpaceOnUse">
<stop stop-color="#12253C"/>
<stop offset="1" stop-color="#12253C" stop-opacity="0"/>
</linearGradient>
<linearGradient id="paint4_linear" x1="672.346" y1="38.5" x2="711.538" y2="77.6923" gradientUnits="userSpaceOnUse">
<stop stop-color="#12253C"/>
<stop offset="1" stop-color="#12253C" stop-opacity="0"/>
</linearGradient>
<linearGradient id="paint5_linear" x1="988.154" y1="38" x2="948.462" y2="77.6923" gradientUnits="userSpaceOnUse">
<stop stop-color="#12253C"/>
<stop offset="1" stop-color="#12253C" stop-opacity="0"/>
</linearGradient>
<clipPath id="clip0">
<rect width="100" height="100" fill="white" transform="translate(0 151)"/>
</clipPath>
<clipPath id="clip1">
<rect width="100" height="100" fill="white" transform="translate(130 151)"/>
</clipPath>
<clipPath id="clip2">
<rect width="100" height="100" fill="white" transform="translate(260 151)"/>
</clipPath>
<clipPath id="clip3">
<rect width="100" height="100" fill="white" transform="translate(390 151)"/>
</clipPath>
<clipPath id="clip4">
<rect width="100" height="100" fill="white" transform="translate(520 151)"/>
</clipPath>
<clipPath id="clip5">
<rect width="100" height="100" fill="white" transform="translate(650 151)"/>
</clipPath>
<clipPath id="clip6">
<rect width="100" height="100" fill="white" transform="translate(780 151)"/>
</clipPath>
<clipPath id="clip7">
<rect width="100" height="100" fill="white" transform="translate(910 151)"/>
</clipPath>
<clipPath id="clip8">
<rect width="100" height="100" fill="white" transform="translate(0 20)"/>
</clipPath>
<clipPath id="clip9">
<rect width="100" height="100" fill="white" transform="translate(130 20)"/>
</clipPath>
<clipPath id="clip10">
<rect width="100" height="100" fill="white" transform="matrix(-1 0 0 1 360 20)"/>
</clipPath>
<clipPath id="clip11">
<rect width="100" height="100" fill="white" transform="translate(1560 20)"/>
</clipPath>
<clipPath id="clip12">
<rect width="100" height="100" fill="white" transform="matrix(-1 0 0 1 1920 20)"/>
</clipPath>
<clipPath id="clip13">
<rect width="100" height="100" fill="white" transform="translate(390 20)"/>
</clipPath>
<clipPath id="clip14">
<rect width="100" height="100" fill="white" transform="translate(2080 20)"/>
</clipPath>
</defs>
</svg>
