<svg width="1220" height="242" viewBox="0 0 1220 242" fill="none" xmlns="http://www.w3.org/2000/svg">
<g clip-path="url(#clip0)">
<path d="M35.4616 42.3077C37.1184 42.3077 38.4616 43.6508 38.4616 45.3077V97C38.4616 98.6569 39.8047 100 41.4616 100H58.5385C60.1953 100 61.5385 98.6569 61.5385 97V45.3077C61.5385 43.6508 62.8816 42.3077 64.5385 42.3077H71.4581C73.8253 42.3077 75.26 39.6942 73.9891 37.6971L52.531 3.97726C51.3521 2.12476 48.6479 2.12476 47.469 3.97726L26.011 37.6971C24.74 39.6942 26.1747 42.3077 28.542 42.3077H35.4616Z" fill="#12253C"/>
</g>
<path d="M598.462 41.4615C598.462 39.8047 599.805 38.4615 601.462 38.4615H618.538C620.195 38.4615 621.538 39.8047 621.538 41.4615V97C621.538 98.6569 622.882 100 624.538 100H641.615C643.272 100 644.615 98.6569 644.615 97V34.6154C644.615 23.0769 636.923 15.3846 625.385 15.3846H601.462C599.805 15.3846 598.462 14.0415 598.462 12.3846V5.72131C598.462 3.30218 595.745 1.87792 593.755 3.25365L563.525 24.1539C561.812 25.3383 561.798 27.8651 563.497 29.0693L593.727 50.4911C595.714 51.899 598.462 50.4784 598.462 48.0434V41.4615Z" fill="#12253C"/>
<path d="M761.538 41.4615C761.538 39.8047 760.195 38.4615 758.538 38.4615H741.462C739.805 38.4615 738.462 39.8047 738.462 41.4615V97C738.462 98.6569 737.118 100 735.462 100H718.385C716.728 100 715.385 98.6569 715.385 97V34.6154C715.385 23.0769 723.077 15.3846 734.615 15.3846H758.538C760.195 15.3846 761.538 14.0415 761.538 12.3846V5.72131C761.538 3.30218 764.255 1.87792 766.245 3.25365L796.475 24.1539C798.188 25.3383 798.202 27.8651 796.503 29.0693L766.273 50.4911C764.286 51.899 761.538 50.4784 761.538 48.0434V41.4615Z" fill="#12253C"/>
<g clip-path="url(#clip1)">
<path d="M41.4615 188.154C39.8047 188.154 38.4615 186.811 38.4615 185.154V180.462C38.4615 167.071 39.9747 164.958 52.0618 165.077C64.1489 165.196 65.3846 166.791 65.3846 180.462V239C65.3846 240.657 66.7278 242 68.3846 242H85.4615C87.1184 242 88.4615 240.657 88.4615 239V180.462C88.4615 151.953 79.6725 143.057 52.0614 142.962C24.4503 142.866 15.3846 151.415 15.3846 180.462V185.154C15.3846 186.811 14.0415 188.154 12.3846 188.154H5.76197C3.3349 188.154 1.91244 190.886 3.30427 192.874L24.4654 223.104C25.6597 224.811 28.1865 224.811 29.3808 223.104L50.5419 192.874C51.9337 190.886 50.5113 188.154 48.0842 188.154H41.4615Z" fill="#12253C"/>
</g>
<g clip-path="url(#clip2)">
<path d="M198.538 187.154C200.195 187.154 201.538 185.811 201.538 184.154V179.462C201.538 166.071 200.025 163.958 187.938 164.077C175.851 164.196 174.615 165.791 174.615 179.462V238C174.615 239.657 173.272 241 171.615 241H154.538C152.882 241 151.538 239.657 151.538 238V179.462C151.538 150.953 160.328 142.057 187.939 141.962C215.55 141.866 224.615 150.415 224.615 179.462V184.154C224.615 185.811 225.959 187.154 227.615 187.154H234.238C236.665 187.154 238.088 189.886 236.696 191.874L215.535 222.104C214.34 223.811 211.814 223.811 210.619 222.104L189.458 191.874C188.066 189.886 189.489 187.154 191.916 187.154H198.538Z" fill="#12253C"/>
</g>
<path d="M610.01 237.962C609.999 239.619 611.343 241 613 241H630.077C631.734 241 633.075 239.629 633.092 237.972C633.595 186.682 646.803 157.144 653 146.072C654.207 143.914 652.626 141 650.154 141H630.636C629.746 141 628.905 141.399 628.407 142.137C624.787 147.513 610.445 172.887 610.01 237.962Z" fill="url(#paint0_linear)"/>
<path d="M588.648 177.737C589.819 176.565 591.722 176.557 592.838 177.782C600.368 186.05 610 201.017 610 225.615V238C610 239.657 611.343 241 613 241H630.077C631.734 241 633.077 239.657 633.077 238V225.615C633.077 199.922 622.568 177.732 608.237 162.387C607.106 161.176 607.104 159.281 608.275 158.109L613.57 152.814C615.296 151.089 614.349 148.135 611.942 147.734L575.681 141.69C573.651 141.352 571.891 143.112 572.229 145.143L578.272 181.404C578.674 183.811 581.627 184.757 583.353 183.032L588.648 177.737Z" fill="#12253C"/>
<path d="M749.99 237.962C750.001 239.619 748.657 241 747 241H729.923C728.266 241 726.925 239.629 726.908 237.972C726.405 186.682 713.197 157.144 707 146.072C705.793 143.914 707.374 141 709.846 141H729.364C730.254 141 731.095 141.399 731.593 142.137C735.213 147.513 749.555 172.887 749.99 237.962Z" fill="url(#paint1_linear)"/>
<path d="M771.352 177.737C770.181 176.565 768.278 176.557 767.162 177.782C759.632 186.05 750 201.017 750 225.615V238C750 239.657 748.657 241 747 241H729.923C728.266 241 726.923 239.657 726.923 238V225.615C726.923 199.922 737.432 177.732 751.763 162.387C752.894 161.176 752.896 159.281 751.725 158.109L746.43 152.814C744.704 151.089 745.651 148.135 748.058 147.734L784.319 141.69C786.349 141.352 788.109 143.112 787.771 145.143L781.728 181.404C781.326 183.811 778.373 184.757 776.647 183.032L771.352 177.737Z" fill="#12253C"/>
<g clip-path="url(#clip3)">
<path d="M901.538 237.962C901.538 239.619 902.882 241 904.538 241H921.615C923.272 241 924.615 239.629 924.615 237.972C924.615 183.019 924.615 153.035 924.615 143.981C924.615 142.324 923.272 141 921.615 141H904.538C902.882 141 901.538 142.323 901.538 143.98C901.538 152.17 901.538 178.482 901.538 237.962Z" fill="url(#paint2_linear)"/>
<path d="M874.615 190.154C874.615 188.497 875.965 187.146 877.622 187.191C894.652 187.657 901.538 192.864 901.538 225.615V238C901.538 239.657 902.882 241 904.538 241H921.615C923.272 241 924.615 239.657 924.615 238V225.615C924.615 180.818 910.122 165.008 877.618 164.117C875.962 164.072 874.615 162.734 874.615 161.077V154.826C874.615 152.33 871.744 150.925 869.774 152.458L843.045 173.247C841.5 174.448 841.5 176.782 843.045 177.983L869.774 198.773C871.744 200.305 874.615 198.901 874.615 196.405V190.154Z" fill="#12253C"/>
</g>
<g clip-path="url(#clip4)">
<path d="M1018.46 237.962C1018.46 239.619 1017.12 241 1015.46 241H998.385C996.728 241 995.385 239.629 995.385 237.972C995.385 183.019 995.385 153.035 995.385 143.981C995.385 142.324 996.728 141 998.385 141H1015.46C1017.12 141 1018.46 142.323 1018.46 143.98C1018.46 152.17 1018.46 178.482 1018.46 237.962Z" fill="url(#paint3_linear)"/>
<path d="M1045.38 190.154C1045.38 188.497 1044.03 187.146 1042.38 187.191C1025.35 187.657 1018.46 192.864 1018.46 225.615V238C1018.46 239.657 1017.12 241 1015.46 241H998.385C996.728 241 995.385 239.657 995.385 238V225.615C995.385 180.818 1009.88 165.008 1042.38 164.117C1044.04 164.072 1045.38 162.734 1045.38 161.077V154.826C1045.38 152.33 1048.26 150.925 1050.23 152.458L1076.96 173.247C1078.5 174.448 1078.5 176.782 1076.96 177.983L1050.23 198.773C1048.26 200.305 1045.38 198.901 1045.38 196.405V190.154Z" fill="#12253C"/>
</g>
<path d="M868.648 36.7367C869.819 35.5651 871.719 35.5651 872.891 36.7367L886.154 50C890 53.8462 893.846 57.6923 893.846 65.3846V97C893.846 98.6569 895.189 100 896.846 100H913.923C915.58 100 916.923 98.6569 916.923 97V65.3846C916.923 50 909.231 42.3077 901.538 34.6154L888.275 21.3521C887.104 20.1805 887.104 18.281 888.275 17.1094L893.57 11.8144C895.296 10.089 894.349 7.13509 891.942 6.73393L855.681 0.690475C853.651 0.352065 851.891 2.11239 852.229 4.14285L858.272 40.4036C858.674 42.8105 861.627 43.7571 863.353 42.0317L868.648 36.7367Z" fill="#12253C"/>
<path d="M1051.35 36.7367C1050.18 35.5651 1048.28 35.5651 1047.11 36.7367L1033.85 50C1030 53.8462 1026.15 57.6923 1026.15 65.3846V97C1026.15 98.6569 1024.81 100 1023.15 100H1006.08C1004.42 100 1003.08 98.6569 1003.08 97V65.3846C1003.08 50 1010.77 42.3077 1018.46 34.6154L1031.72 21.3521C1032.9 20.1805 1032.9 18.281 1031.72 17.1094L1026.43 11.8144C1024.7 10.089 1025.65 7.13509 1028.06 6.73393L1064.32 0.690475C1066.35 0.352065 1068.11 2.11239 1067.77 4.14285L1061.73 40.4036C1061.33 42.8105 1058.37 43.7571 1056.65 42.0317L1051.35 36.7367Z" fill="#12253C"/>
<path d="M300.956 177.34C302.127 178.512 304.027 178.512 305.198 177.34L322.308 160.231C337.692 144.846 364.615 152.538 364.615 179.462V238C364.615 239.657 363.272 241 361.615 241H344.538C342.882 241 341.538 239.657 341.538 238V179.462C341.538 175.615 341.538 171.769 337.692 175.615L320.583 192.725C319.411 193.896 319.411 195.796 320.583 196.967L325.878 202.262C327.603 203.988 326.657 206.942 324.25 207.343L287.989 213.386C285.959 213.725 284.198 211.965 284.537 209.934L290.58 173.673C290.981 171.266 293.935 170.32 295.661 172.045L300.956 177.34Z" fill="#12253C"/>
<path d="M499.044 177.34C497.873 178.512 495.973 178.512 494.802 177.34L477.692 160.231C462.308 144.846 435.385 152.538 435.385 179.462V238C435.385 239.657 436.728 241 438.385 241H455.462C457.118 241 458.462 239.657 458.462 238V179.462C458.462 175.615 458.462 171.769 462.308 175.615L479.417 192.725C480.589 193.896 480.589 195.796 479.417 196.967L474.122 202.262C472.397 203.988 473.343 206.942 475.75 207.343L512.011 213.386C514.041 213.725 515.802 211.965 515.463 209.934L509.42 173.673C509.019 171.266 506.065 170.32 504.339 172.045L499.044 177.34Z" fill="#12253C"/>
<g clip-path="url(#clip5)">
<path d="M175.462 42.3077C177.118 42.3077 178.462 43.6508 178.462 45.3077V50.5495C178.462 65.3846 159.231 61.5385 159.231 84.6154V97.4772C159.231 99.162 160.618 100.516 162.302 100.476L179.379 100.07C181.008 100.031 182.308 98.6996 182.308 97.0706V84.6154C182.308 73.0769 197.692 73.0769 197.692 84.6154V97C197.692 98.6569 199.035 100 200.692 100H217.769C219.426 100 220.769 98.6569 220.769 97V84.6154C220.769 61.5385 201.538 65.3846 201.538 50V45.3077C201.538 43.6508 202.882 42.3077 204.538 42.3077H211.458C213.825 42.3077 215.26 39.6942 213.989 37.6971L192.531 3.97726C191.352 2.12476 188.648 2.12476 187.469 3.97726L166.011 37.6971C164.74 39.6942 166.175 42.3077 168.542 42.3077H175.462Z" fill="#12253C"/>
</g>
<path d="M330 7.69232C308.758 7.69232 291.538 24.9121 291.538 46.1539C291.538 62.4955 302.165 75.1982 316.538 80.7692C316.538 69.2308 320.385 63.4615 326.154 61.5385C318.658 60.5073 314.615 53.9326 314.615 46.1539C314.615 37.6572 321.503 30.7692 330 30.7692C338.497 30.7692 345.385 37.6572 345.385 46.1539H368.462C368.462 24.9121 351.242 7.69232 330 7.69232Z" fill="url(#paint4_linear)"/>
<path d="M359.044 32.8903C357.873 31.7187 355.973 31.7187 354.802 32.8903L338.074 49.6181C336.514 51.1782 337.619 53.8459 339.825 53.8459V53.8459C341.634 53.8459 342.806 55.7277 341.683 57.1459C339.532 59.8627 336.691 61.5382 333.846 61.5382C324.231 61.5382 318.462 69.2305 318.462 76.9228V96.9997C318.462 98.6566 319.805 99.9997 321.462 99.9997H338.538C340.195 99.9997 341.538 98.6566 341.538 96.9997V85.0507C341.538 83.74 342.394 82.5922 343.62 82.128C355.059 77.796 363.883 68.165 367.115 56.2318C367.488 54.8548 368.706 53.8459 370.132 53.8459H372.757C375.43 53.8459 376.769 50.6144 374.879 48.7246L359.044 32.8903Z" fill="#12253C"/>
<path d="M470 7.69232C491.242 7.69232 508.462 24.9121 508.462 46.1539C508.462 62.4955 497.835 75.1982 483.462 80.7692C483.462 69.2308 479.615 63.4615 473.846 61.5385C481.342 60.5073 485.385 53.9326 485.385 46.1539C485.385 37.6572 478.497 30.7692 470 30.7692C461.503 30.7692 454.615 37.6572 454.615 46.1539H431.538C431.538 24.9121 448.758 7.69232 470 7.69232Z" fill="url(#paint5_linear)"/>
<path d="M440.956 32.8903C442.127 31.7187 444.027 31.7187 445.198 32.8903L461.926 49.6181C463.486 51.1782 462.381 53.8459 460.175 53.8459V53.8459C458.366 53.8459 457.194 55.7277 458.317 57.1459C460.468 59.8627 463.309 61.5382 466.154 61.5382C475.769 61.5382 481.538 69.2305 481.538 76.9228V96.9997C481.538 98.6566 480.195 99.9997 478.538 99.9997H461.462C459.805 99.9997 458.462 98.6566 458.462 96.9997V85.0507C458.462 83.74 457.606 82.5922 456.38 82.128C444.941 77.796 436.117 68.165 432.885 56.2318C432.512 54.8548 431.294 53.8459 429.868 53.8459H427.243C424.57 53.8459 423.231 50.6144 425.121 48.7246L440.956 32.8903Z" fill="#12253C"/>
<g clip-path="url(#clip6)">
<path d="M1167.78 0C1166.12 0 1164.78 1.34315 1164.78 3V13.6466C1164.78 15.3035 1163.44 16.6466 1161.78 16.6466H1150.73C1142.96 16.6466 1136.61 22.9922 1136.61 30.7692V84.6154C1136.61 92.3924 1142.96 98.726 1150.73 98.726H1189.19C1196.97 98.726 1203.31 92.3924 1203.31 84.6154V30.7692C1203.31 22.9922 1196.97 16.6466 1189.19 16.6466H1178.49C1176.84 16.6466 1175.49 15.3035 1175.49 13.6466V3C1175.49 1.34315 1174.15 0 1172.49 0H1167.78ZM1152.27 23.3413H1187.66C1192.66 23.3413 1196.61 27.3001 1196.61 32.3077V83.0769C1196.61 88.0845 1192.66 92.0313 1187.66 92.0313H1152.27C1147.26 92.0313 1143.31 88.0845 1143.31 83.0769V32.3077C1143.31 27.3001 1147.26 23.3413 1152.27 23.3413ZM1155.67 32.6923C1154.01 32.6923 1152.67 34.0355 1152.67 35.6923V58.7337C1152.67 60.2827 1151.41 61.5385 1149.86 61.5385V61.5385C1147.7 61.5385 1146.35 63.8885 1147.44 65.7583L1155.87 80.1753C1157.03 82.159 1159.89 82.1567 1161.05 80.1713L1169.44 65.7594C1170.53 63.8874 1169.18 61.5385 1167.01 61.5385V61.5385C1165.46 61.5385 1164.21 60.2813 1164.21 58.7305V35.6923C1164.21 34.0355 1162.86 32.6923 1161.21 32.6923H1155.67ZM1184.13 35.2137C1182.97 33.2284 1180.1 33.2261 1178.94 35.2097L1170.52 49.6263C1169.43 51.4961 1170.77 53.8462 1172.94 53.8462V53.8462C1174.49 53.8462 1175.75 55.1019 1175.75 56.6509V79.6923C1175.75 81.3492 1177.09 82.6923 1178.75 82.6923H1184.28C1185.94 82.6923 1187.28 81.3492 1187.28 79.6923V56.6541C1187.28 55.1033 1188.54 53.8462 1190.09 53.8462V53.8462C1192.26 53.8462 1193.61 51.4972 1192.52 49.6252L1184.13 35.2137Z" fill="#12253C"/>
</g>
<defs>
<linearGradient id="paint0_linear" x1="620" y1="212" x2="640.769" y2="141" gradientUnits="userSpaceOnUse">
<stop stop-color="#12253C"/>
<stop offset="1" stop-color="#12253C" stop-opacity="0"/>
</linearGradient>
<linearGradient id="paint1_linear" x1="740" y1="212" x2="719.231" y2="141" gradientUnits="userSpaceOnUse">
<stop stop-color="#12253C"/>
<stop offset="1" stop-color="#12253C" stop-opacity="0"/>
</linearGradient>
<linearGradient id="paint2_linear" x1="913" y1="202" x2="913" y2="141" gradientUnits="userSpaceOnUse">
<stop stop-color="#12253C"/>
<stop offset="1" stop-color="#12253C" stop-opacity="0"/>
</linearGradient>
<linearGradient id="paint3_linear" x1="1007" y1="202" x2="1007" y2="141" gradientUnits="userSpaceOnUse">
<stop stop-color="#12253C"/>
<stop offset="1" stop-color="#12253C" stop-opacity="0"/>
</linearGradient>
<linearGradient id="paint4_linear" x1="302.346" y1="18.5" x2="341.538" y2="57.6923" gradientUnits="userSpaceOnUse">
<stop stop-color="#12253C"/>
<stop offset="1" stop-color="#12253C" stop-opacity="0"/>
</linearGradient>
<linearGradient id="paint5_linear" x1="498.154" y1="18" x2="458.462" y2="57.6923" gradientUnits="userSpaceOnUse">
<stop stop-color="#12253C"/>
<stop offset="1" stop-color="#12253C" stop-opacity="0"/>
</linearGradient>
<clipPath id="clip0">
<rect width="100" height="100" fill="white"/>
</clipPath>
<clipPath id="clip1">
<rect width="100" height="100" fill="white" transform="translate(0 142)"/>
</clipPath>
<clipPath id="clip2">
<rect width="100" height="100" fill="white" transform="matrix(-1 0 0 1 240 141)"/>
</clipPath>
<clipPath id="clip3">
<rect width="100" height="100" fill="white" transform="translate(840 141)"/>
</clipPath>
<clipPath id="clip4">
<rect width="100" height="100" fill="white" transform="matrix(-1 0 0 1 1080 141)"/>
</clipPath>
<clipPath id="clip5">
<rect width="100" height="100" fill="white" transform="translate(140)"/>
</clipPath>
<clipPath id="clip6">
<rect width="100" height="100" fill="white" transform="translate(1120)"/>
</clipPath>
</defs>
</svg>
