<svg width="1580" height="591" viewBox="0 0 1580 591" fill="none" xmlns="http://www.w3.org/2000/svg">
<path fill-rule="evenodd" clip-rule="evenodd" d="M52.7725 20C49.735 20 47.2725 22.4624 47.2725 25.5V89.1551L43.014 98.2805C42.9157 98.4912 43.133 98.7103 43.3445 98.6136L50.3484 95.4119C51.0797 95.7715 51.9025 95.9735 52.7725 95.9735H109.954C112.992 95.9735 115.454 93.5111 115.454 90.4736V25.5C115.454 22.4624 112.992 20 109.954 20H52.7725ZM105.649 60.4377C105.649 57.7455 105.489 55.7428 104.914 53.1162L101.563 38.2106C100.956 32.9575 92.0188 29.8057 81.1342 29.8057C70.2496 29.8057 61.312 32.9575 60.7056 38.2106L57.4178 53.1162C56.8433 55.7428 56.6198 57.7455 56.6198 60.4377V80.2353H60.7056V84.4377C60.7056 86.7688 62.525 88.6402 64.7913 88.6402C67.0576 88.6402 68.877 86.7688 68.877 84.4377V80.2353H93.3914V84.4377C93.3914 86.7688 95.2108 88.6402 97.4771 88.6402C99.7434 88.6402 101.563 86.7688 101.563 84.4377V80.2353H105.649V60.4377ZM67.6596 34.6106C67.3835 34.6106 67.1596 34.8344 67.1596 35.1106V39.9547C67.1596 40.2308 67.3835 40.4547 67.6596 40.4547H95.0687C95.3448 40.4547 95.5687 40.2308 95.5687 39.9547V35.1106C95.5687 34.8344 95.3448 34.6106 95.0687 34.6106H67.6596ZM67.0291 45.1394C67.1082 44.9563 67.2886 44.8377 67.4881 44.8377H95.2399C95.4394 44.8377 95.6197 44.9563 95.6989 45.1394L100.949 57.2887C101.091 57.6188 100.849 57.987 100.49 57.987H62.2383C61.8787 57.987 61.6367 57.6188 61.7794 57.2887L67.0291 45.1394ZM68.5803 74.1177C70.9338 74.1177 72.8417 72.1553 72.8417 69.7346C72.8417 67.3139 70.9338 65.3515 68.5803 65.3515C66.2268 65.3515 64.319 67.3139 64.319 69.7346C64.319 72.1553 66.2268 74.1177 68.5803 74.1177ZM98.4084 69.7346C98.4084 72.1553 96.5006 74.1177 94.1471 74.1177C91.7936 74.1177 89.8857 72.1553 89.8857 69.7346C89.8857 67.3139 91.7936 65.3515 94.1471 65.3515C96.5006 65.3515 98.4084 67.3139 98.4084 69.7346ZM20.5177 73.1671C20.9319 72.776 21.3462 72.4827 21.9676 72.3849L32.7386 70.0384C33.36 69.9406 33.8778 70.0384 34.3957 70.2339C35.0171 70.5272 35.3278 70.9183 35.5349 71.3094L40.5061 82.2599C40.7133 82.8465 40.8168 83.3354 40.6097 83.8243C40.5061 84.3131 40.1954 84.7042 39.7812 84.9975L32.2208 93.9226C34.085 97.7357 36.6741 101.158 39.7812 104.091C42.8882 107.122 46.513 109.468 50.5522 111.228L56.9733 101.325C57.3876 100.934 57.8019 100.641 58.3197 100.543C58.9411 100.446 59.4589 100.446 59.8732 100.641L71.4727 105.334C72.0942 105.53 72.5084 105.921 72.7156 106.41C73.0263 106.996 73.1298 107.485 72.9227 107.974L70.4371 118.142C70.4371 118.729 70.1264 119.218 69.6085 119.511C69.1943 119.902 68.6764 120 68.055 120C59.3554 120 51.2771 117.947 43.8203 113.84C36.5706 109.832 30.8744 104.356 26.5246 97.5124C22.1747 90.4728 19.9998 82.8465 19.9998 74.6337C19.9998 74.1448 20.207 73.6559 20.5177 73.1671Z" fill="#12253C"/>
<g clip-path="url(#clip0)">
<path fill-rule="evenodd" clip-rule="evenodd" d="M201.84 107.451C207.495 110.221 213.708 111.663 220.005 111.667H220.038C220.489 111.665 220.928 111.811 221.288 112.084C223.15 113.476 225.17 114.643 227.308 115.559C228.168 115.927 228.678 116.823 228.553 117.751C228.429 118.678 227.701 119.409 226.774 119.538C218.134 120.725 209.333 119.616 201.257 116.321V116.404L200.595 116.079C176.713 106.018 164.477 79.3745 172.409 54.7019C180.341 30.0292 205.81 15.5083 231.08 21.2511C256.351 26.9939 273.044 51.0963 269.535 76.7741C269.407 77.7011 268.676 78.4287 267.748 78.553C266.821 78.6773 265.924 78.1679 265.556 77.3074C260.452 65.0911 247.686 57.9198 234.598 59.917C233.003 59.0249 231.206 58.5532 229.378 58.5463C223.051 58.5463 217.921 53.4166 217.921 47.0888C217.921 40.7611 223.051 35.6314 229.378 35.6314H239.864C240.338 35.6307 240.751 35.3107 240.87 34.8525C240.99 34.3944 240.785 33.9133 240.372 33.6815C229.151 27.3683 215.638 26.6095 203.78 31.6265C191.922 36.6436 183.057 46.8707 179.773 59.3212C179.69 59.6333 179.757 59.966 179.953 60.2221C180.15 60.4781 180.454 60.6286 180.777 60.6295H192.925C202.83 60.6555 211 68.3963 211.56 78.2865C210.393 81.319 209.744 84.5258 209.639 87.7733C208.507 90.0619 206.921 92.0961 204.978 93.752C202.618 95.7262 201.255 98.6454 201.257 101.722V106.514C201.257 106.912 201.483 107.275 201.84 107.451ZM259.007 103.122C258.334 102.448 258.204 101.403 258.691 100.585C264.612 90.5775 262.164 77.7274 252.977 70.5992C243.791 63.471 230.736 64.2914 222.514 72.5138C214.293 80.7362 213.472 93.7917 220.6 102.979C227.728 112.166 240.577 114.614 250.584 108.693C251.403 108.207 252.448 108.339 253.121 109.013L262.886 118.779C264.521 120.358 267.119 120.336 268.726 118.729C270.333 117.121 270.356 114.523 268.777 112.888L259.007 103.122ZM224.171 88.8726C224.171 80.7523 230.753 74.1696 238.873 74.1696C246.992 74.1696 253.575 80.7523 253.575 88.8726C253.575 96.9929 246.992 103.576 238.873 103.576C230.757 103.566 224.18 96.9891 224.171 88.8726Z" fill="#12253C"/>
</g>
<path fill-rule="evenodd" clip-rule="evenodd" d="M369.585 20C347.733 20.0253 330.026 37.7331 330 59.5847C330 86.8523 357.239 111.616 365.589 118.557C367.904 120.481 371.262 120.481 373.577 118.557C381.91 111.616 409.17 86.8522 409.17 59.5805C409.142 37.7306 391.435 20.0253 369.585 20ZM371.668 35.6255C375.12 35.6255 377.919 38.4238 377.919 41.8757C377.919 45.3276 375.12 48.1259 371.668 48.1259C368.217 48.1259 365.418 45.3276 365.418 41.8757C365.418 38.4238 368.217 35.6255 371.668 35.6255ZM381.044 89.794C383.345 89.794 385.211 87.9285 385.211 85.6272C385.211 83.326 383.345 81.4604 381.044 81.4604H376.877V60.6264C376.877 56.0238 373.146 52.2928 368.543 52.2928H364.377C362.075 52.2928 360.21 54.1583 360.21 56.4596C360.21 58.7608 362.075 60.6264 364.377 60.6264H366.46C367.611 60.6264 368.543 61.5591 368.543 62.7098V79.377C368.543 80.5276 367.611 81.4604 366.46 81.4604H364.377C362.075 81.4604 360.21 83.326 360.21 85.6272C360.21 87.9285 362.075 89.794 364.377 89.794H381.044Z" fill="#12253C"/>
<path fill-rule="evenodd" clip-rule="evenodd" d="M474.447 40.5158C472.544 38.6491 472.514 35.593 474.381 33.6897L486.388 21.4471C486.906 20.9184 487.517 20.5343 488.168 20.2952C488.544 20.1571 488.942 20.0643 489.356 20.0236C490.063 19.9536 490.782 20.0391 491.459 20.2807C492.098 20.5085 492.698 20.8751 493.214 21.3808L505.456 33.3877C507.36 35.2543 507.389 38.3105 505.523 40.2138C503.656 42.1171 500.6 42.1468 498.697 40.2801L494.774 36.433L495.162 76.3103C495.217 82.0149 499.886 86.5944 505.591 86.539C511.296 86.4835 515.875 81.8141 515.82 76.1095L515.702 63.9848C515.595 52.9487 524.454 43.9152 535.49 43.8079C546.526 43.7007 555.56 52.5603 555.667 63.5964L556.055 103.474L559.902 99.5507C561.769 97.6475 564.825 97.6178 566.728 99.4844C568.631 101.351 568.661 104.407 566.795 106.311L554.788 118.553C554.704 118.639 554.617 118.721 554.527 118.8C554.497 118.826 554.467 118.852 554.437 118.877C553.611 119.568 552.549 119.989 551.388 120C550.037 120.013 548.81 119.47 547.926 118.584L535.719 106.613C533.816 104.746 533.786 101.69 535.653 99.7864C537.519 97.8831 540.576 97.8534 542.479 99.7201L546.401 103.567L546.014 63.6902C545.958 57.9856 541.289 53.4061 535.584 53.4615C529.88 53.5169 525.3 58.1864 525.355 63.891L525.473 76.0157C525.581 87.0518 516.721 96.0853 505.685 96.1925C494.649 96.2998 485.615 87.4402 485.508 76.4041L485.12 36.5268L481.273 40.4494C479.407 42.3527 476.35 42.3824 474.447 40.5158Z" fill="#12253C"/>
<g clip-path="url(#clip1)">
<path fill-rule="evenodd" clip-rule="evenodd" d="M700.31 74.1012C700.873 74.1011 701.413 73.8866 701.812 73.5049C702.599 72.7493 721 54.9209 721 40.8665C721 29.8945 711.735 21 700.306 21C688.877 21 679.612 29.8945 679.612 40.8665C679.612 54.9209 698.021 72.7493 698.804 73.5049C699.204 73.8876 699.745 74.1021 700.31 74.1012ZM693.345 40.8706C693.344 38.1655 695.04 35.726 697.643 34.6901C700.246 33.6541 703.242 34.2259 705.235 36.1386C707.227 38.0514 707.823 40.9282 706.744 43.427C705.665 45.9258 703.124 47.5543 700.306 47.5526C696.463 47.5504 693.348 44.56 693.345 40.8706ZM700.31 80.2278C700.683 80.2285 701.056 80.2026 701.425 80.1502H701.412C702.052 80.0625 702.699 80.259 703.17 80.6841C703.64 81.1092 703.885 81.7168 703.833 82.3353C702.479 99.0447 690.361 113.147 673.53 117.599C656.699 122.052 638.767 115.899 628.688 102.214C628.064 101.372 628.193 100.214 628.991 99.5184C631.097 97.6624 633.301 95.9107 635.594 94.2699C637.014 93.2672 637.319 91.349 636.274 89.9854C635.23 88.6218 633.232 88.3292 631.811 89.3319C630.165 90.4878 628.463 91.8152 626.761 93.2488C626.23 93.6933 625.503 93.856 624.822 93.6835C624.14 93.5109 623.592 93.0253 623.358 92.387C618.884 80.2041 620.851 66.6943 628.633 56.1561C636.415 45.618 649.044 39.3639 662.5 39.3839C665.578 39.3915 668.645 39.734 671.643 40.405C672.559 40.6071 673.228 41.3626 673.289 42.2634C674.132 54.6636 685.325 69.2367 694.294 77.8343C695.889 79.3664 698.053 80.2273 700.31 80.2278ZM656.186 86.4932C657.733 86.4895 659.277 86.6262 660.798 86.9016C661.958 87.1982 663.194 86.844 663.995 85.9852C664.796 85.1264 665.028 83.9085 664.593 82.8336C664.159 81.7587 663.133 81.0089 661.938 80.8935C660.029 80.5459 658.09 80.3695 656.147 80.3666C653.36 80.3746 650.586 80.7358 647.898 81.4408C646.35 81.8425 645.353 83.2845 645.569 84.8098C645.784 86.3351 647.145 87.47 648.749 87.4612C649.036 87.4633 649.322 87.4276 649.6 87.355C651.745 86.7875 653.96 86.4977 656.186 86.4932ZM691.784 95.8873C691.359 97.1564 690.13 98.0177 688.742 98.0194C688.413 98.0192 688.086 97.971 687.772 97.8764C683.616 96.4802 679.593 94.7463 675.744 92.6933C674.169 91.9105 673.541 90.0578 674.336 88.5354C674.713 87.8142 675.375 87.2679 676.174 87.0184C676.974 86.769 677.844 86.8373 678.59 87.208L678.688 87.257C682.22 89.1593 685.913 90.7702 689.729 92.0725C691.393 92.5896 692.314 94.2966 691.792 95.8996L691.784 95.8873Z" fill="#12253C"/>
</g>
<g clip-path="url(#clip2)">
<path fill-rule="evenodd" clip-rule="evenodd" d="M779.338 86.698C779.338 87.8491 780.271 88.7823 781.422 88.7823H810.604C810.604 88.8282 810.604 94.9144 810.891 97.1196H779.338C774.733 97.1196 771 93.3869 771 88.7823V32.5059C771 30.2036 772.866 28.3373 775.169 28.3373H784.549C785.7 28.3373 786.633 29.2704 786.633 30.4216V38.7588C786.633 40.4855 788.033 41.8853 789.76 41.8853C791.486 41.8853 792.886 40.4855 792.886 38.7588V23.1265C792.886 21.3998 794.286 20 796.013 20C797.74 20 799.139 21.3998 799.139 23.1265V27.2951C799.139 27.8707 799.606 28.3373 800.182 28.3373H817.899C819.05 28.3373 819.983 29.2704 819.983 30.4216V38.7588C819.983 40.4855 821.383 41.8853 823.11 41.8853C824.837 41.8853 826.237 40.4855 826.237 38.7588V23.1265C826.237 21.3998 827.636 20 829.363 20C831.09 20 832.49 21.3998 832.49 23.1265V27.2951C832.49 27.8707 832.956 28.3373 833.532 28.3373H843.954C846.256 28.3373 848.123 30.2036 848.123 32.5059V59.8854C845.897 59.6019 839.827 59.6019 839.785 59.6019V51.2647C839.785 50.1136 838.852 49.1804 837.701 49.1804H781.422C780.271 49.1804 779.338 50.1136 779.338 51.2647V86.698ZM858.87 101.976C865.653 92.1451 863.82 78.7643 854.644 71.1188C845.468 63.4733 831.975 64.0859 823.529 72.5313C815.084 80.9768 814.471 94.4686 822.117 103.645C829.763 112.821 843.144 114.653 852.975 107.871L863.935 118.83C865.571 120.41 868.171 120.387 869.779 118.779C871.387 117.171 871.41 114.571 869.83 112.935L858.87 101.976ZM825.194 88.9074C825.194 80.7827 831.781 74.1963 839.906 74.1963C848.031 74.1963 854.618 80.7827 854.618 88.9074C854.618 97.0321 848.031 103.618 839.906 103.618C831.785 103.609 825.204 97.0283 825.194 88.9074Z" fill="#12253C"/>
</g>
<path fill-rule="evenodd" clip-rule="evenodd" d="M1004.33 70C1004.33 58.0956 997.974 47.0976 987.667 41.1417V26.25C987.667 22.7982 984.868 20 981.417 20H960.583C957.132 20 954.333 22.7982 954.333 26.25V41.1458C944.029 47.1027 937.683 58.1019 937.683 70.0042C937.683 81.9065 944.029 92.9057 954.333 98.8625V113.75C954.333 115.408 954.992 116.997 956.164 118.169C957.336 119.342 958.926 120 960.583 120H981.417C984.868 120 987.667 117.202 987.667 113.75V98.8625C997.975 92.9052 1004.33 81.9057 1004.33 70ZM971 95C957.193 95 946 83.8071 946 70C946 56.1929 957.193 45 971 45C984.807 45 996 56.1929 996 70C995.984 83.8005 984.8 94.9839 971 95ZM974.125 57.5V68.7083L983.625 78.2083C984.211 78.7937 984.541 79.5882 984.541 80.4167C984.541 81.2451 984.211 82.0396 983.625 82.625C982.387 83.7996 980.446 83.7996 979.208 82.625L968.792 72.2083C968.205 71.6231 967.875 70.8286 967.875 70V57.5C967.875 55.7741 969.274 54.375 971 54.375C972.726 54.375 974.125 55.7741 974.125 57.5Z" fill="#12253C"/>
<path d="M1094.96 45C1097.26 45 1099.12 43.1345 1099.12 40.8333V28.3333H1135.94L1144.96 37.3458V40.8333C1144.96 43.1345 1146.82 45 1149.12 45C1151.43 45 1153.29 43.1345 1153.29 40.8333V35.6208C1153.29 34.5159 1152.85 33.4562 1152.07 32.675L1141.83 22.4458C1140.27 20.8853 1138.15 20.0061 1135.94 20H1099.12C1094.52 20 1090.79 23.731 1090.79 28.3333V40.8333C1090.79 43.1345 1092.66 45 1094.96 45Z" fill="#12253C"/>
<path fill-rule="evenodd" clip-rule="evenodd" d="M1160.58 49.1667H1081.42C1075.66 49.1667 1071 53.8304 1071 59.5834V78.3334C1071 84.0864 1075.66 88.7501 1081.42 88.7501H1091.83V114.792C1091.84 117.667 1094.17 119.998 1097.04 120H1147.04C1149.92 119.998 1152.25 117.667 1152.25 114.792V88.7501H1160.58C1163.35 88.7501 1166 87.6526 1167.95 85.6991C1169.9 83.7456 1171 81.0961 1171 78.3334V59.5834C1171 56.8207 1169.9 54.1712 1167.95 52.2177C1166 50.2642 1163.35 49.1667 1160.58 49.1667ZM1085.58 67.9167C1083.28 67.9167 1081.42 66.0512 1081.42 63.75C1081.42 61.4488 1083.28 59.5833 1085.58 59.5833C1087.88 59.5833 1089.75 61.4488 1089.75 63.75C1089.75 66.0512 1087.88 67.9167 1085.58 67.9167ZM1141.83 111.667C1142.98 111.667 1143.92 110.734 1143.92 109.583V71.9042C1143.92 70.7536 1142.98 69.8209 1141.83 69.8209H1102.25C1101.1 69.8209 1100.17 70.7536 1100.17 71.9042V109.583C1100.17 110.734 1101.1 111.667 1102.25 111.667H1141.83Z" fill="#12253C"/>
<path d="M1133.5 81.4541H1110.58C1108.86 81.4541 1107.46 82.8532 1107.46 84.5791C1107.46 86.305 1108.86 87.7041 1110.58 87.7041H1133.5C1135.23 87.7041 1136.63 86.305 1136.63 84.5791C1136.63 82.8532 1135.23 81.4541 1133.5 81.4541V81.4541Z" fill="#12253C"/>
<path d="M1126.21 96.0377H1110.58C1108.86 96.0377 1107.46 97.4368 1107.46 99.1627C1107.46 100.889 1108.86 102.288 1110.58 102.288H1126.21C1127.93 102.288 1129.33 100.889 1129.33 99.1627C1129.33 97.4368 1127.93 96.0377 1126.21 96.0377V96.0377Z" fill="#12253C"/>
<path d="M1094.96 195C1097.26 195 1099.12 193.135 1099.12 190.833V178.333H1135.94L1144.96 187.346V190.833C1144.96 193.135 1146.82 195 1149.12 195C1151.43 195 1153.29 193.135 1153.29 190.833V185.621C1153.29 184.516 1152.85 183.456 1152.07 182.675L1141.83 172.446C1140.27 170.885 1138.15 170.006 1135.94 170H1099.12C1094.52 170 1090.79 173.731 1090.79 178.333V190.833C1090.79 193.135 1092.66 195 1094.96 195Z" fill="white"/>
<path d="M1094.96 195C1097.26 195 1099.12 193.135 1099.12 190.833V178.333H1135.94L1144.96 187.346V190.833C1144.96 193.135 1146.82 195 1149.12 195C1151.43 195 1153.29 193.135 1153.29 190.833V185.621C1153.29 184.516 1152.85 183.456 1152.07 182.675L1141.83 172.446C1140.27 170.885 1138.15 170.006 1135.94 170H1099.12C1094.52 170 1090.79 173.731 1090.79 178.333V190.833C1090.79 193.135 1092.66 195 1094.96 195Z" fill="#2767AC" fill-opacity="0.6"/>
<path fill-rule="evenodd" clip-rule="evenodd" d="M1160.58 199.167H1081.42C1075.66 199.167 1071 203.83 1071 209.583V228.333C1071 234.086 1075.66 238.75 1081.42 238.75H1091.83V264.792C1091.84 267.667 1094.17 269.998 1097.04 270H1147.04C1149.92 269.998 1152.25 267.667 1152.25 264.792V238.75H1160.58C1163.35 238.75 1166 237.653 1167.95 235.699C1169.9 233.746 1171 231.096 1171 228.333V209.583C1171 206.821 1169.9 204.171 1167.95 202.218C1166 200.264 1163.35 199.167 1160.58 199.167ZM1085.58 217.917C1083.28 217.917 1081.42 216.051 1081.42 213.75C1081.42 211.449 1083.28 209.583 1085.58 209.583C1087.88 209.583 1089.75 211.449 1089.75 213.75C1089.75 216.051 1087.88 217.917 1085.58 217.917ZM1141.83 261.667C1142.98 261.667 1143.92 260.734 1143.92 259.583V221.904C1143.92 220.754 1142.98 219.821 1141.83 219.821H1102.25C1101.1 219.821 1100.17 220.754 1100.17 221.904V259.583C1100.17 260.734 1101.1 261.667 1102.25 261.667H1141.83Z" fill="white"/>
<path fill-rule="evenodd" clip-rule="evenodd" d="M1160.58 199.167H1081.42C1075.66 199.167 1071 203.83 1071 209.583V228.333C1071 234.086 1075.66 238.75 1081.42 238.75H1091.83V264.792C1091.84 267.667 1094.17 269.998 1097.04 270H1147.04C1149.92 269.998 1152.25 267.667 1152.25 264.792V238.75H1160.58C1163.35 238.75 1166 237.653 1167.95 235.699C1169.9 233.746 1171 231.096 1171 228.333V209.583C1171 206.821 1169.9 204.171 1167.95 202.218C1166 200.264 1163.35 199.167 1160.58 199.167ZM1085.58 217.917C1083.28 217.917 1081.42 216.051 1081.42 213.75C1081.42 211.449 1083.28 209.583 1085.58 209.583C1087.88 209.583 1089.75 211.449 1089.75 213.75C1089.75 216.051 1087.88 217.917 1085.58 217.917ZM1141.83 261.667C1142.98 261.667 1143.92 260.734 1143.92 259.583V221.904C1143.92 220.754 1142.98 219.821 1141.83 219.821H1102.25C1101.1 219.821 1100.17 220.754 1100.17 221.904V259.583C1100.17 260.734 1101.1 261.667 1102.25 261.667H1141.83Z" fill="#2767AC" fill-opacity="0.6"/>
<path d="M1133.5 231.454H1110.58C1108.86 231.454 1107.46 232.853 1107.46 234.579C1107.46 236.305 1108.86 237.704 1110.58 237.704H1133.5C1135.23 237.704 1136.63 236.305 1136.63 234.579C1136.63 232.853 1135.23 231.454 1133.5 231.454V231.454Z" fill="white"/>
<path d="M1133.5 231.454H1110.58C1108.86 231.454 1107.46 232.853 1107.46 234.579C1107.46 236.305 1108.86 237.704 1110.58 237.704H1133.5C1135.23 237.704 1136.63 236.305 1136.63 234.579C1136.63 232.853 1135.23 231.454 1133.5 231.454V231.454Z" fill="#2767AC" fill-opacity="0.6"/>
<path d="M1126.21 246.038H1110.58C1108.86 246.038 1107.46 247.437 1107.46 249.163C1107.46 250.889 1108.86 252.288 1110.58 252.288H1126.21C1127.93 252.288 1129.33 250.889 1129.33 249.163C1129.33 247.437 1127.93 246.038 1126.21 246.038V246.038Z" fill="white"/>
<path d="M1126.21 246.038H1110.58C1108.86 246.038 1107.46 247.437 1107.46 249.163C1107.46 250.889 1108.86 252.288 1110.58 252.288H1126.21C1127.93 252.288 1129.33 250.889 1129.33 249.163C1129.33 247.437 1127.93 246.038 1126.21 246.038V246.038Z" fill="#2767AC" fill-opacity="0.6"/>
<path fill-rule="evenodd" clip-rule="evenodd" d="M52.7725 170C49.735 170 47.2725 172.462 47.2725 175.5V239.155L43.014 248.281C42.9157 248.491 43.133 248.71 43.3445 248.614L50.3484 245.412C51.0797 245.772 51.9025 245.974 52.7725 245.974H109.954C112.992 245.974 115.454 243.511 115.454 240.474V175.5C115.454 172.462 112.992 170 109.954 170H52.7725ZM105.649 210.438C105.649 207.746 105.489 205.743 104.914 203.116L101.563 188.211C100.956 182.958 92.0188 179.806 81.1342 179.806C70.2496 179.806 61.312 182.958 60.7056 188.211L57.4178 203.116C56.8433 205.743 56.6198 207.746 56.6198 210.438V230.235H60.7056V234.438C60.7056 236.769 62.525 238.64 64.7913 238.64C67.0576 238.64 68.877 236.769 68.877 234.438V230.235H93.3914V234.438C93.3914 236.769 95.2108 238.64 97.4771 238.64C99.7434 238.64 101.563 236.769 101.563 234.438V230.235H105.649V210.438ZM67.6596 184.611C67.3835 184.611 67.1596 184.834 67.1596 185.111V189.955C67.1596 190.231 67.3835 190.455 67.6596 190.455H95.0687C95.3448 190.455 95.5687 190.231 95.5687 189.955V185.111C95.5687 184.834 95.3448 184.611 95.0687 184.611H67.6596ZM67.0291 195.139C67.1082 194.956 67.2886 194.838 67.4881 194.838H95.2399C95.4394 194.838 95.6197 194.956 95.6989 195.139L100.949 207.289C101.091 207.619 100.849 207.987 100.49 207.987H62.2383C61.8787 207.987 61.6367 207.619 61.7794 207.289L67.0291 195.139ZM68.5803 224.118C70.9338 224.118 72.8417 222.155 72.8417 219.735C72.8417 217.314 70.9338 215.352 68.5803 215.352C66.2268 215.352 64.319 217.314 64.319 219.735C64.319 222.155 66.2268 224.118 68.5803 224.118ZM98.4084 219.735C98.4084 222.155 96.5006 224.118 94.1471 224.118C91.7936 224.118 89.8857 222.155 89.8857 219.735C89.8857 217.314 91.7936 215.352 94.1471 215.352C96.5006 215.352 98.4084 217.314 98.4084 219.735ZM20.5177 223.167C20.9319 222.776 21.3462 222.483 21.9676 222.385L32.7386 220.038C33.36 219.941 33.8778 220.038 34.3957 220.234C35.0171 220.527 35.3278 220.918 35.5349 221.309L40.5061 232.26C40.7133 232.847 40.8168 233.335 40.6097 233.824C40.5061 234.313 40.1954 234.704 39.7812 234.998L32.2208 243.923C34.085 247.736 36.6741 251.158 39.7812 254.091C42.8882 257.122 46.513 259.468 50.5522 261.228L56.9733 251.325C57.3876 250.934 57.8019 250.641 58.3197 250.543C58.9411 250.446 59.4589 250.446 59.8732 250.641L71.4727 255.334C72.0942 255.53 72.5084 255.921 72.7156 256.41C73.0263 256.996 73.1298 257.485 72.9227 257.974L70.4371 268.142C70.4371 268.729 70.1264 269.218 69.6085 269.511C69.1943 269.902 68.6764 270 68.055 270C59.3554 270 51.2771 267.947 43.8203 263.84C36.5706 259.832 30.8744 254.356 26.5246 247.512C22.1747 240.473 19.9998 232.847 19.9998 224.634C19.9998 224.145 20.207 223.656 20.5177 223.167Z" fill="white"/>
<path fill-rule="evenodd" clip-rule="evenodd" d="M52.7725 170C49.735 170 47.2725 172.462 47.2725 175.5V239.155L43.014 248.281C42.9157 248.491 43.133 248.71 43.3445 248.614L50.3484 245.412C51.0797 245.772 51.9025 245.974 52.7725 245.974H109.954C112.992 245.974 115.454 243.511 115.454 240.474V175.5C115.454 172.462 112.992 170 109.954 170H52.7725ZM105.649 210.438C105.649 207.746 105.489 205.743 104.914 203.116L101.563 188.211C100.956 182.958 92.0188 179.806 81.1342 179.806C70.2496 179.806 61.312 182.958 60.7056 188.211L57.4178 203.116C56.8433 205.743 56.6198 207.746 56.6198 210.438V230.235H60.7056V234.438C60.7056 236.769 62.525 238.64 64.7913 238.64C67.0576 238.64 68.877 236.769 68.877 234.438V230.235H93.3914V234.438C93.3914 236.769 95.2108 238.64 97.4771 238.64C99.7434 238.64 101.563 236.769 101.563 234.438V230.235H105.649V210.438ZM67.6596 184.611C67.3835 184.611 67.1596 184.834 67.1596 185.111V189.955C67.1596 190.231 67.3835 190.455 67.6596 190.455H95.0687C95.3448 190.455 95.5687 190.231 95.5687 189.955V185.111C95.5687 184.834 95.3448 184.611 95.0687 184.611H67.6596ZM67.0291 195.139C67.1082 194.956 67.2886 194.838 67.4881 194.838H95.2399C95.4394 194.838 95.6197 194.956 95.6989 195.139L100.949 207.289C101.091 207.619 100.849 207.987 100.49 207.987H62.2383C61.8787 207.987 61.6367 207.619 61.7794 207.289L67.0291 195.139ZM68.5803 224.118C70.9338 224.118 72.8417 222.155 72.8417 219.735C72.8417 217.314 70.9338 215.352 68.5803 215.352C66.2268 215.352 64.319 217.314 64.319 219.735C64.319 222.155 66.2268 224.118 68.5803 224.118ZM98.4084 219.735C98.4084 222.155 96.5006 224.118 94.1471 224.118C91.7936 224.118 89.8857 222.155 89.8857 219.735C89.8857 217.314 91.7936 215.352 94.1471 215.352C96.5006 215.352 98.4084 217.314 98.4084 219.735ZM20.5177 223.167C20.9319 222.776 21.3462 222.483 21.9676 222.385L32.7386 220.038C33.36 219.941 33.8778 220.038 34.3957 220.234C35.0171 220.527 35.3278 220.918 35.5349 221.309L40.5061 232.26C40.7133 232.847 40.8168 233.335 40.6097 233.824C40.5061 234.313 40.1954 234.704 39.7812 234.998L32.2208 243.923C34.085 247.736 36.6741 251.158 39.7812 254.091C42.8882 257.122 46.513 259.468 50.5522 261.228L56.9733 251.325C57.3876 250.934 57.8019 250.641 58.3197 250.543C58.9411 250.446 59.4589 250.446 59.8732 250.641L71.4727 255.334C72.0942 255.53 72.5084 255.921 72.7156 256.41C73.0263 256.996 73.1298 257.485 72.9227 257.974L70.4371 268.142C70.4371 268.729 70.1264 269.218 69.6085 269.511C69.1943 269.902 68.6764 270 68.055 270C59.3554 270 51.2771 267.947 43.8203 263.84C36.5706 259.832 30.8744 254.356 26.5246 247.512C22.1747 240.473 19.9998 232.847 19.9998 224.634C19.9998 224.145 20.207 223.656 20.5177 223.167Z" fill="#2767AC" fill-opacity="0.6"/>
<g clip-path="url(#clip3)">
<path fill-rule="evenodd" clip-rule="evenodd" d="M201.84 257.451C207.495 260.221 213.708 261.663 220.005 261.667H220.038C220.489 261.665 220.928 261.811 221.288 262.084C223.15 263.476 225.17 264.643 227.308 265.559C228.168 265.927 228.678 266.823 228.553 267.751C228.429 268.678 227.701 269.409 226.774 269.538C218.134 270.725 209.333 269.616 201.257 266.321V266.404L200.595 266.079C176.713 256.018 164.477 229.375 172.409 204.702C180.341 180.029 205.81 165.508 231.08 171.251C256.351 176.994 273.044 201.096 269.535 226.774C269.407 227.701 268.676 228.429 267.748 228.553C266.821 228.677 265.924 228.168 265.556 227.307C260.452 215.091 247.686 207.92 234.598 209.917C233.003 209.025 231.206 208.553 229.378 208.546C223.051 208.546 217.921 203.417 217.921 197.089C217.921 190.761 223.051 185.631 229.378 185.631H239.864C240.338 185.631 240.751 185.311 240.87 184.853C240.99 184.394 240.785 183.913 240.372 183.682C229.151 177.368 215.638 176.609 203.78 181.627C191.922 186.644 183.057 196.871 179.773 209.321C179.69 209.633 179.757 209.966 179.953 210.222C180.15 210.478 180.454 210.629 180.777 210.629H192.925C202.83 210.656 211 218.396 211.56 228.286C210.393 231.319 209.744 234.526 209.639 237.773C208.507 240.062 206.921 242.096 204.978 243.752C202.618 245.726 201.255 248.645 201.257 251.722V256.514C201.257 256.912 201.483 257.275 201.84 257.451ZM259.007 253.122C258.334 252.448 258.204 251.403 258.691 250.585C264.612 240.578 262.164 227.727 252.977 220.599C243.791 213.471 230.736 214.291 222.514 222.514C214.293 230.736 213.472 243.792 220.6 252.979C227.728 262.166 240.577 264.614 250.584 258.693C251.403 258.207 252.448 258.339 253.121 259.013L262.886 268.779C264.521 270.358 267.119 270.336 268.726 268.729C270.333 267.121 270.356 264.523 268.777 262.888L259.007 253.122ZM224.171 238.873C224.171 230.752 230.753 224.17 238.873 224.17C246.992 224.17 253.575 230.752 253.575 238.873C253.575 246.993 246.992 253.576 238.873 253.576C230.757 253.566 224.18 246.989 224.171 238.873Z" fill="white"/>
<path fill-rule="evenodd" clip-rule="evenodd" d="M201.84 257.451C207.495 260.221 213.708 261.663 220.005 261.667H220.038C220.489 261.665 220.928 261.811 221.288 262.084C223.15 263.476 225.17 264.643 227.308 265.559C228.168 265.927 228.678 266.823 228.553 267.751C228.429 268.678 227.701 269.409 226.774 269.538C218.134 270.725 209.333 269.616 201.257 266.321V266.404L200.595 266.079C176.713 256.018 164.477 229.375 172.409 204.702C180.341 180.029 205.81 165.508 231.08 171.251C256.351 176.994 273.044 201.096 269.535 226.774C269.407 227.701 268.676 228.429 267.748 228.553C266.821 228.677 265.924 228.168 265.556 227.307C260.452 215.091 247.686 207.92 234.598 209.917C233.003 209.025 231.206 208.553 229.378 208.546C223.051 208.546 217.921 203.417 217.921 197.089C217.921 190.761 223.051 185.631 229.378 185.631H239.864C240.338 185.631 240.751 185.311 240.87 184.853C240.99 184.394 240.785 183.913 240.372 183.682C229.151 177.368 215.638 176.609 203.78 181.627C191.922 186.644 183.057 196.871 179.773 209.321C179.69 209.633 179.757 209.966 179.953 210.222C180.15 210.478 180.454 210.629 180.777 210.629H192.925C202.83 210.656 211 218.396 211.56 228.286C210.393 231.319 209.744 234.526 209.639 237.773C208.507 240.062 206.921 242.096 204.978 243.752C202.618 245.726 201.255 248.645 201.257 251.722V256.514C201.257 256.912 201.483 257.275 201.84 257.451ZM259.007 253.122C258.334 252.448 258.204 251.403 258.691 250.585C264.612 240.578 262.164 227.727 252.977 220.599C243.791 213.471 230.736 214.291 222.514 222.514C214.293 230.736 213.472 243.792 220.6 252.979C227.728 262.166 240.577 264.614 250.584 258.693C251.403 258.207 252.448 258.339 253.121 259.013L262.886 268.779C264.521 270.358 267.119 270.336 268.726 268.729C270.333 267.121 270.356 264.523 268.777 262.888L259.007 253.122ZM224.171 238.873C224.171 230.752 230.753 224.17 238.873 224.17C246.992 224.17 253.575 230.752 253.575 238.873C253.575 246.993 246.992 253.576 238.873 253.576C230.757 253.566 224.18 246.989 224.171 238.873Z" fill="#2767AC" fill-opacity="0.6"/>
</g>
<path fill-rule="evenodd" clip-rule="evenodd" d="M369.585 170C347.733 170.025 330.026 187.733 330 209.585C330 236.852 357.239 261.616 365.589 268.557C367.904 270.481 371.262 270.481 373.577 268.557C381.91 261.616 409.17 236.852 409.17 209.581C409.142 187.731 391.435 170.025 369.585 170ZM371.668 185.626C375.12 185.626 377.919 188.424 377.919 191.876C377.919 195.328 375.12 198.126 371.668 198.126C368.217 198.126 365.418 195.328 365.418 191.876C365.418 188.424 368.217 185.626 371.668 185.626ZM381.044 239.794C383.345 239.794 385.211 237.928 385.211 235.627C385.211 233.326 383.345 231.46 381.044 231.46H376.877V210.626C376.877 206.024 373.146 202.293 368.543 202.293H364.377C362.075 202.293 360.21 204.158 360.21 206.46C360.21 208.761 362.075 210.626 364.377 210.626H366.46C367.611 210.626 368.543 211.559 368.543 212.71V229.377C368.543 230.528 367.611 231.46 366.46 231.46H364.377C362.075 231.46 360.21 233.326 360.21 235.627C360.21 237.928 362.075 239.794 364.377 239.794H381.044Z" fill="white"/>
<path fill-rule="evenodd" clip-rule="evenodd" d="M369.585 170C347.733 170.025 330.026 187.733 330 209.585C330 236.852 357.239 261.616 365.589 268.557C367.904 270.481 371.262 270.481 373.577 268.557C381.91 261.616 409.17 236.852 409.17 209.581C409.142 187.731 391.435 170.025 369.585 170ZM371.668 185.626C375.12 185.626 377.919 188.424 377.919 191.876C377.919 195.328 375.12 198.126 371.668 198.126C368.217 198.126 365.418 195.328 365.418 191.876C365.418 188.424 368.217 185.626 371.668 185.626ZM381.044 239.794C383.345 239.794 385.211 237.928 385.211 235.627C385.211 233.326 383.345 231.46 381.044 231.46H376.877V210.626C376.877 206.024 373.146 202.293 368.543 202.293H364.377C362.075 202.293 360.21 204.158 360.21 206.46C360.21 208.761 362.075 210.626 364.377 210.626H366.46C367.611 210.626 368.543 211.559 368.543 212.71V229.377C368.543 230.528 367.611 231.46 366.46 231.46H364.377C362.075 231.46 360.21 233.326 360.21 235.627C360.21 237.928 362.075 239.794 364.377 239.794H381.044Z" fill="#2767AC" fill-opacity="0.6"/>
<g clip-path="url(#clip4)">
<path fill-rule="evenodd" clip-rule="evenodd" d="M474.447 190.516C472.544 188.649 472.514 185.593 474.381 183.69L486.388 171.447C486.908 170.917 487.521 170.532 488.175 170.293C488.548 170.157 488.941 170.065 489.35 170.024C490.057 169.954 490.776 170.038 491.453 170.279C492.094 170.506 492.696 170.874 493.214 171.381L505.456 183.388C507.36 185.255 507.389 188.311 505.523 190.214C503.656 192.117 500.6 192.147 498.697 190.28L494.774 186.433L495.162 226.311C495.217 232.015 499.886 236.595 505.591 236.539C511.296 236.484 515.875 231.814 515.82 226.11L515.702 213.985C515.595 202.949 524.454 193.915 535.49 193.808C546.526 193.701 555.56 202.561 555.667 213.597L556.055 253.474L559.902 249.551C561.769 247.648 564.825 247.618 566.728 249.485C568.631 251.351 568.661 254.407 566.795 256.311L554.788 268.553C554.704 268.639 554.617 268.721 554.527 268.8C554.497 268.826 554.467 268.852 554.437 268.877C553.611 269.569 552.549 269.989 551.388 270C550.037 270.013 548.81 269.47 547.926 268.584L535.719 256.613C533.816 254.746 533.786 251.69 535.653 249.787C537.519 247.883 540.576 247.854 542.479 249.72L546.401 253.567L546.014 213.69C545.958 207.986 541.289 203.406 535.584 203.462C529.88 203.517 525.3 208.187 525.355 213.891L525.473 226.016C525.581 237.052 516.721 246.086 505.685 246.193C494.649 246.3 485.615 237.44 485.508 226.404L485.12 186.527L481.273 190.45C479.407 192.353 476.35 192.383 474.447 190.516Z" fill="white"/>
<path fill-rule="evenodd" clip-rule="evenodd" d="M474.447 190.516C472.544 188.649 472.514 185.593 474.381 183.69L486.388 171.447C486.908 170.917 487.521 170.532 488.175 170.293C488.548 170.157 488.941 170.065 489.35 170.024C490.057 169.954 490.776 170.038 491.453 170.279C492.094 170.506 492.696 170.874 493.214 171.381L505.456 183.388C507.36 185.255 507.389 188.311 505.523 190.214C503.656 192.117 500.6 192.147 498.697 190.28L494.774 186.433L495.162 226.311C495.217 232.015 499.886 236.595 505.591 236.539C511.296 236.484 515.875 231.814 515.82 226.11L515.702 213.985C515.595 202.949 524.454 193.915 535.49 193.808C546.526 193.701 555.56 202.561 555.667 213.597L556.055 253.474L559.902 249.551C561.769 247.648 564.825 247.618 566.728 249.485C568.631 251.351 568.661 254.407 566.795 256.311L554.788 268.553C554.704 268.639 554.617 268.721 554.527 268.8C554.497 268.826 554.467 268.852 554.437 268.877C553.611 269.569 552.549 269.989 551.388 270C550.037 270.013 548.81 269.47 547.926 268.584L535.719 256.613C533.816 254.746 533.786 251.69 535.653 249.787C537.519 247.883 540.576 247.854 542.479 249.72L546.401 253.567L546.014 213.69C545.958 207.986 541.289 203.406 535.584 203.462C529.88 203.517 525.3 208.187 525.355 213.891L525.473 226.016C525.581 237.052 516.721 246.086 505.685 246.193C494.649 246.3 485.615 237.44 485.508 226.404L485.12 186.527L481.273 190.45C479.407 192.353 476.35 192.383 474.447 190.516Z" fill="#2767AC" fill-opacity="0.6"/>
</g>
<g clip-path="url(#clip5)">
<path fill-rule="evenodd" clip-rule="evenodd" d="M700.31 224.101C700.873 224.101 701.413 223.887 701.812 223.505C702.599 222.749 721 204.921 721 190.866C721 179.895 711.735 171 700.306 171C688.877 171 679.612 179.895 679.612 190.866C679.612 204.921 698.021 222.749 698.804 223.505C699.204 223.888 699.745 224.102 700.31 224.101ZM693.345 190.871C693.344 188.166 695.04 185.726 697.643 184.69C700.246 183.654 703.242 184.226 705.235 186.139C707.227 188.051 707.823 190.928 706.744 193.427C705.665 195.926 703.124 197.554 700.306 197.553C696.463 197.55 693.348 194.56 693.345 190.871ZM700.31 230.228C700.683 230.228 701.056 230.203 701.425 230.15H701.412C702.052 230.063 702.699 230.259 703.17 230.684C703.64 231.109 703.885 231.717 703.833 232.335C702.479 249.045 690.361 263.147 673.53 267.599C656.699 272.052 638.767 265.899 628.688 252.214C628.064 251.372 628.193 250.214 628.991 249.518C631.097 247.662 633.301 245.911 635.594 244.27C637.014 243.267 637.319 241.349 636.274 239.985C635.23 238.622 633.232 238.329 631.811 239.332C630.165 240.488 628.463 241.815 626.761 243.249C626.23 243.693 625.503 243.856 624.822 243.683C624.14 243.511 623.592 243.025 623.358 242.387C618.884 230.204 620.851 216.694 628.633 206.156C636.415 195.618 649.044 189.364 662.5 189.384C665.578 189.391 668.645 189.734 671.643 190.405C672.559 190.607 673.228 191.363 673.289 192.263C674.132 204.664 685.325 219.237 694.294 227.834C695.889 229.366 698.053 230.227 700.31 230.228ZM656.186 236.493C657.733 236.489 659.277 236.626 660.798 236.902C661.958 237.198 663.194 236.844 663.995 235.985C664.796 235.126 665.028 233.908 664.593 232.834C664.159 231.759 663.133 231.009 661.938 230.893C660.029 230.546 658.09 230.369 656.147 230.367C653.36 230.375 650.586 230.736 647.898 231.441C646.35 231.842 645.353 233.284 645.569 234.81C645.784 236.335 647.145 237.47 648.749 237.461C649.036 237.463 649.322 237.428 649.6 237.355C651.745 236.788 653.96 236.498 656.186 236.493ZM691.784 245.887C691.359 247.156 690.13 248.018 688.742 248.019C688.413 248.019 688.086 247.971 687.772 247.876C683.616 246.48 679.593 244.746 675.744 242.693C674.169 241.911 673.541 240.058 674.336 238.535C674.713 237.814 675.375 237.268 676.174 237.018C676.974 236.769 677.844 236.837 678.59 237.208L678.688 237.257C682.22 239.159 685.913 240.77 689.729 242.072C691.393 242.59 692.314 244.297 691.792 245.9L691.784 245.887Z" fill="white"/>
<path fill-rule="evenodd" clip-rule="evenodd" d="M700.31 224.101C700.873 224.101 701.413 223.887 701.812 223.505C702.599 222.749 721 204.921 721 190.866C721 179.895 711.735 171 700.306 171C688.877 171 679.612 179.895 679.612 190.866C679.612 204.921 698.021 222.749 698.804 223.505C699.204 223.888 699.745 224.102 700.31 224.101ZM693.345 190.871C693.344 188.166 695.04 185.726 697.643 184.69C700.246 183.654 703.242 184.226 705.235 186.139C707.227 188.051 707.823 190.928 706.744 193.427C705.665 195.926 703.124 197.554 700.306 197.553C696.463 197.55 693.348 194.56 693.345 190.871ZM700.31 230.228C700.683 230.228 701.056 230.203 701.425 230.15H701.412C702.052 230.063 702.699 230.259 703.17 230.684C703.64 231.109 703.885 231.717 703.833 232.335C702.479 249.045 690.361 263.147 673.53 267.599C656.699 272.052 638.767 265.899 628.688 252.214C628.064 251.372 628.193 250.214 628.991 249.518C631.097 247.662 633.301 245.911 635.594 244.27C637.014 243.267 637.319 241.349 636.274 239.985C635.23 238.622 633.232 238.329 631.811 239.332C630.165 240.488 628.463 241.815 626.761 243.249C626.23 243.693 625.503 243.856 624.822 243.683C624.14 243.511 623.592 243.025 623.358 242.387C618.884 230.204 620.851 216.694 628.633 206.156C636.415 195.618 649.044 189.364 662.5 189.384C665.578 189.391 668.645 189.734 671.643 190.405C672.559 190.607 673.228 191.363 673.289 192.263C674.132 204.664 685.325 219.237 694.294 227.834C695.889 229.366 698.053 230.227 700.31 230.228ZM656.186 236.493C657.733 236.489 659.277 236.626 660.798 236.902C661.958 237.198 663.194 236.844 663.995 235.985C664.796 235.126 665.028 233.908 664.593 232.834C664.159 231.759 663.133 231.009 661.938 230.893C660.029 230.546 658.09 230.369 656.147 230.367C653.36 230.375 650.586 230.736 647.898 231.441C646.35 231.842 645.353 233.284 645.569 234.81C645.784 236.335 647.145 237.47 648.749 237.461C649.036 237.463 649.322 237.428 649.6 237.355C651.745 236.788 653.96 236.498 656.186 236.493ZM691.784 245.887C691.359 247.156 690.13 248.018 688.742 248.019C688.413 248.019 688.086 247.971 687.772 247.876C683.616 246.48 679.593 244.746 675.744 242.693C674.169 241.911 673.541 240.058 674.336 238.535C674.713 237.814 675.375 237.268 676.174 237.018C676.974 236.769 677.844 236.837 678.59 237.208L678.688 237.257C682.22 239.159 685.913 240.77 689.729 242.072C691.393 242.59 692.314 244.297 691.792 245.9L691.784 245.887Z" fill="#2767AC" fill-opacity="0.6"/>
</g>
<g clip-path="url(#clip6)">
<path fill-rule="evenodd" clip-rule="evenodd" d="M779.338 236.698C779.338 237.849 780.271 238.782 781.422 238.782H810.604C810.604 238.828 810.604 244.914 810.891 247.12H779.338C774.733 247.12 771 243.387 771 238.782V182.506C771 180.204 772.866 178.337 775.169 178.337H784.549C785.7 178.337 786.633 179.27 786.633 180.422V188.759C786.633 190.486 788.033 191.885 789.76 191.885C791.486 191.885 792.886 190.486 792.886 188.759V173.126C792.886 171.4 794.286 170 796.013 170C797.74 170 799.139 171.4 799.139 173.126V177.295C799.139 177.871 799.606 178.337 800.182 178.337H817.899C819.05 178.337 819.983 179.27 819.983 180.422V188.759C819.983 190.486 821.383 191.885 823.11 191.885C824.837 191.885 826.237 190.486 826.237 188.759V173.126C826.237 171.4 827.636 170 829.363 170C831.09 170 832.49 171.4 832.49 173.126V177.295C832.49 177.871 832.956 178.337 833.532 178.337H843.954C846.256 178.337 848.123 180.204 848.123 182.506V209.885C845.897 209.602 839.827 209.602 839.785 209.602V201.265C839.785 200.114 838.852 199.18 837.701 199.18H781.422C780.271 199.18 779.338 200.114 779.338 201.265V236.698ZM858.87 251.976C865.653 242.145 863.82 228.764 854.644 221.119C845.468 213.473 831.975 214.086 823.529 222.531C815.084 230.977 814.471 244.469 822.117 253.645C829.763 262.821 843.144 264.653 852.975 257.87L863.935 268.83C865.571 270.41 868.171 270.387 869.779 268.779C871.387 267.171 871.41 264.571 869.83 262.935L858.87 251.976ZM825.194 238.907C825.194 230.783 831.781 224.196 839.906 224.196C848.031 224.196 854.618 230.783 854.618 238.907C854.618 247.032 848.031 253.618 839.906 253.618C831.785 253.609 825.204 247.028 825.194 238.907Z" fill="white"/>
<path fill-rule="evenodd" clip-rule="evenodd" d="M779.338 236.698C779.338 237.849 780.271 238.782 781.422 238.782H810.604C810.604 238.828 810.604 244.914 810.891 247.12H779.338C774.733 247.12 771 243.387 771 238.782V182.506C771 180.204 772.866 178.337 775.169 178.337H784.549C785.7 178.337 786.633 179.27 786.633 180.422V188.759C786.633 190.486 788.033 191.885 789.76 191.885C791.486 191.885 792.886 190.486 792.886 188.759V173.126C792.886 171.4 794.286 170 796.013 170C797.74 170 799.139 171.4 799.139 173.126V177.295C799.139 177.871 799.606 178.337 800.182 178.337H817.899C819.05 178.337 819.983 179.27 819.983 180.422V188.759C819.983 190.486 821.383 191.885 823.11 191.885C824.837 191.885 826.237 190.486 826.237 188.759V173.126C826.237 171.4 827.636 170 829.363 170C831.09 170 832.49 171.4 832.49 173.126V177.295C832.49 177.871 832.956 178.337 833.532 178.337H843.954C846.256 178.337 848.123 180.204 848.123 182.506V209.885C845.897 209.602 839.827 209.602 839.785 209.602V201.265C839.785 200.114 838.852 199.18 837.701 199.18H781.422C780.271 199.18 779.338 200.114 779.338 201.265V236.698ZM858.87 251.976C865.653 242.145 863.82 228.764 854.644 221.119C845.468 213.473 831.975 214.086 823.529 222.531C815.084 230.977 814.471 244.469 822.117 253.645C829.763 262.821 843.144 264.653 852.975 257.87L863.935 268.83C865.571 270.41 868.171 270.387 869.779 268.779C871.387 267.171 871.41 264.571 869.83 262.935L858.87 251.976ZM825.194 238.907C825.194 230.783 831.781 224.196 839.906 224.196C848.031 224.196 854.618 230.783 854.618 238.907C854.618 247.032 848.031 253.618 839.906 253.618C831.785 253.609 825.204 247.028 825.194 238.907Z" fill="#2767AC" fill-opacity="0.6"/>
</g>
<path fill-rule="evenodd" clip-rule="evenodd" d="M1004.33 220C1004.33 208.096 997.974 197.098 987.667 191.142V176.25C987.667 172.798 984.868 170 981.417 170H960.583C957.132 170 954.333 172.798 954.333 176.25V191.146C944.029 197.103 937.683 208.102 937.683 220.004C937.683 231.906 944.029 242.906 954.333 248.862V263.75C954.333 265.408 954.992 266.997 956.164 268.169C957.336 269.342 958.926 270 960.583 270H981.417C984.868 270 987.667 267.202 987.667 263.75V248.862C997.975 242.905 1004.33 231.906 1004.33 220ZM971 245C957.193 245 946 233.807 946 220C946 206.193 957.193 195 971 195C984.807 195 996 206.193 996 220C995.984 233.8 984.8 244.984 971 245ZM974.125 207.5V218.708L983.625 228.208C984.211 228.794 984.541 229.588 984.541 230.417C984.541 231.245 984.211 232.04 983.625 232.625C982.387 233.8 980.446 233.8 979.208 232.625L968.792 222.208C968.205 221.623 967.875 220.829 967.875 220V207.5C967.875 205.774 969.274 204.375 971 204.375C972.726 204.375 974.125 205.774 974.125 207.5Z" fill="white"/>
<path fill-rule="evenodd" clip-rule="evenodd" d="M1004.33 220C1004.33 208.096 997.974 197.098 987.667 191.142V176.25C987.667 172.798 984.868 170 981.417 170H960.583C957.132 170 954.333 172.798 954.333 176.25V191.146C944.029 197.103 937.683 208.102 937.683 220.004C937.683 231.906 944.029 242.906 954.333 248.862V263.75C954.333 265.408 954.992 266.997 956.164 268.169C957.336 269.342 958.926 270 960.583 270H981.417C984.868 270 987.667 267.202 987.667 263.75V248.862C997.975 242.905 1004.33 231.906 1004.33 220ZM971 245C957.193 245 946 233.807 946 220C946 206.193 957.193 195 971 195C984.807 195 996 206.193 996 220C995.984 233.8 984.8 244.984 971 245ZM974.125 207.5V218.708L983.625 228.208C984.211 228.794 984.541 229.588 984.541 230.417C984.541 231.245 984.211 232.04 983.625 232.625C982.387 233.8 980.446 233.8 979.208 232.625L968.792 222.208C968.205 221.623 967.875 220.829 967.875 220V207.5C967.875 205.774 969.274 204.375 971 204.375C972.726 204.375 974.125 205.774 974.125 207.5Z" fill="#2767AC" fill-opacity="0.6"/>
<path d="M1094.96 345C1097.26 345 1099.12 343.135 1099.12 340.833V328.333H1135.94L1144.96 337.346V340.833C1144.96 343.135 1146.82 345 1149.12 345C1151.43 345 1153.29 343.135 1153.29 340.833V335.621C1153.29 334.516 1152.85 333.456 1152.07 332.675L1141.83 322.446C1140.27 320.885 1138.15 320.006 1135.94 320H1099.12C1094.52 320 1090.79 323.731 1090.79 328.333V340.833C1090.79 343.135 1092.66 345 1094.96 345Z" fill="white"/>
<path fill-rule="evenodd" clip-rule="evenodd" d="M1160.58 349.167H1081.42C1075.66 349.167 1071 353.83 1071 359.583V378.333C1071 384.086 1075.66 388.75 1081.42 388.75H1091.83V414.792C1091.84 417.667 1094.17 419.998 1097.04 420H1147.04C1149.92 419.998 1152.25 417.667 1152.25 414.792V388.75H1160.58C1163.35 388.75 1166 387.653 1167.95 385.699C1169.9 383.746 1171 381.096 1171 378.333V359.583C1171 356.821 1169.9 354.171 1167.95 352.218C1166 350.264 1163.35 349.167 1160.58 349.167ZM1085.58 367.917C1083.28 367.917 1081.42 366.051 1081.42 363.75C1081.42 361.449 1083.28 359.583 1085.58 359.583C1087.88 359.583 1089.75 361.449 1089.75 363.75C1089.75 366.051 1087.88 367.917 1085.58 367.917ZM1141.83 411.667C1142.98 411.667 1143.92 410.734 1143.92 409.583V371.904C1143.92 370.754 1142.98 369.821 1141.83 369.821H1102.25C1101.1 369.821 1100.17 370.754 1100.17 371.904V409.583C1100.17 410.734 1101.1 411.667 1102.25 411.667H1141.83Z" fill="white"/>
<path d="M1133.5 381.454H1110.58C1108.86 381.454 1107.46 382.853 1107.46 384.579C1107.46 386.305 1108.86 387.704 1110.58 387.704H1133.5C1135.23 387.704 1136.63 386.305 1136.63 384.579C1136.63 382.853 1135.23 381.454 1133.5 381.454V381.454Z" fill="white"/>
<path d="M1126.21 396.038H1110.58C1108.86 396.038 1107.46 397.437 1107.46 399.163C1107.46 400.889 1108.86 402.288 1110.58 402.288H1126.21C1127.93 402.288 1129.33 400.889 1129.33 399.163C1129.33 397.437 1127.93 396.038 1126.21 396.038V396.038Z" fill="white"/>
<path fill-rule="evenodd" clip-rule="evenodd" d="M52.7725 320C49.735 320 47.2725 322.462 47.2725 325.5V389.155L43.014 398.281C42.9157 398.491 43.133 398.71 43.3445 398.614L50.3484 395.412C51.0797 395.772 51.9025 395.974 52.7725 395.974H109.954C112.992 395.974 115.454 393.511 115.454 390.474V325.5C115.454 322.462 112.992 320 109.954 320H52.7725ZM105.649 360.438C105.649 357.746 105.489 355.743 104.914 353.116L101.563 338.211C100.956 332.958 92.0188 329.806 81.1342 329.806C70.2496 329.806 61.312 332.958 60.7056 338.211L57.4178 353.116C56.8433 355.743 56.6198 357.746 56.6198 360.438V380.235H60.7056V384.438C60.7056 386.769 62.525 388.64 64.7913 388.64C67.0576 388.64 68.877 386.769 68.877 384.438V380.235H93.3914V384.438C93.3914 386.769 95.2108 388.64 97.4771 388.64C99.7434 388.64 101.563 386.769 101.563 384.438V380.235H105.649V360.438ZM67.6596 334.611C67.3835 334.611 67.1596 334.834 67.1596 335.111V339.955C67.1596 340.231 67.3835 340.455 67.6596 340.455H95.0687C95.3448 340.455 95.5687 340.231 95.5687 339.955V335.111C95.5687 334.834 95.3448 334.611 95.0687 334.611H67.6596ZM67.0291 345.139C67.1082 344.956 67.2886 344.838 67.4881 344.838H95.2399C95.4394 344.838 95.6197 344.956 95.6989 345.139L100.949 357.289C101.091 357.619 100.849 357.987 100.49 357.987H62.2383C61.8787 357.987 61.6367 357.619 61.7794 357.289L67.0291 345.139ZM68.5803 374.118C70.9338 374.118 72.8417 372.155 72.8417 369.735C72.8417 367.314 70.9338 365.352 68.5803 365.352C66.2268 365.352 64.319 367.314 64.319 369.735C64.319 372.155 66.2268 374.118 68.5803 374.118ZM98.4084 369.735C98.4084 372.155 96.5006 374.118 94.1471 374.118C91.7936 374.118 89.8857 372.155 89.8857 369.735C89.8857 367.314 91.7936 365.352 94.1471 365.352C96.5006 365.352 98.4084 367.314 98.4084 369.735ZM20.5177 373.167C20.9319 372.776 21.3462 372.483 21.9676 372.385L32.7386 370.038C33.36 369.941 33.8778 370.038 34.3957 370.234C35.0171 370.527 35.3278 370.918 35.5349 371.309L40.5061 382.26C40.7133 382.847 40.8168 383.335 40.6097 383.824C40.5061 384.313 40.1954 384.704 39.7812 384.998L32.2208 393.923C34.085 397.736 36.6741 401.158 39.7812 404.091C42.8882 407.122 46.513 409.468 50.5522 411.228L56.9733 401.325C57.3876 400.934 57.8019 400.641 58.3197 400.543C58.9411 400.446 59.4589 400.446 59.8732 400.641L71.4727 405.334C72.0942 405.53 72.5084 405.921 72.7156 406.41C73.0263 406.996 73.1298 407.485 72.9227 407.974L70.4371 418.142C70.4371 418.729 70.1264 419.218 69.6085 419.511C69.1943 419.902 68.6764 420 68.055 420C59.3554 420 51.2771 417.947 43.8203 413.84C36.5706 409.832 30.8744 404.356 26.5246 397.512C22.1747 390.473 19.9998 382.847 19.9998 374.634C19.9998 374.145 20.207 373.656 20.5177 373.167Z" fill="white"/>
<g clip-path="url(#clip7)">
<path fill-rule="evenodd" clip-rule="evenodd" d="M201.84 407.451C207.495 410.221 213.708 411.663 220.005 411.667H220.038C220.489 411.665 220.928 411.811 221.288 412.084C223.15 413.476 225.17 414.643 227.308 415.559C228.168 415.927 228.678 416.823 228.553 417.751C228.429 418.678 227.701 419.409 226.774 419.538C218.134 420.725 209.333 419.616 201.257 416.321V416.404L200.595 416.079C176.713 406.018 164.477 379.375 172.409 354.702C180.341 330.029 205.81 315.508 231.08 321.251C256.351 326.994 273.044 351.096 269.535 376.774C269.407 377.701 268.676 378.429 267.748 378.553C266.821 378.677 265.924 378.168 265.556 377.307C260.452 365.091 247.686 357.92 234.598 359.917C233.003 359.025 231.206 358.553 229.378 358.546C223.051 358.546 217.921 353.417 217.921 347.089C217.921 340.761 223.051 335.631 229.378 335.631H239.864C240.338 335.631 240.751 335.311 240.87 334.853C240.99 334.394 240.785 333.913 240.372 333.682C229.151 327.368 215.638 326.609 203.78 331.627C191.922 336.644 183.057 346.871 179.773 359.321C179.69 359.633 179.757 359.966 179.953 360.222C180.15 360.478 180.454 360.629 180.777 360.629H192.925C202.83 360.656 211 368.396 211.56 378.286C210.393 381.319 209.744 384.526 209.639 387.773C208.507 390.062 206.921 392.096 204.978 393.752C202.618 395.726 201.255 398.645 201.257 401.722V406.514C201.257 406.912 201.483 407.275 201.84 407.451ZM259.007 403.122C258.334 402.448 258.204 401.403 258.691 400.585C264.612 390.578 262.164 377.727 252.977 370.599C243.791 363.471 230.736 364.291 222.514 372.514C214.293 380.736 213.472 393.792 220.6 402.979C227.728 412.166 240.577 414.614 250.584 408.693C251.403 408.207 252.448 408.339 253.121 409.013L262.886 418.779C264.521 420.358 267.119 420.336 268.726 418.729C270.333 417.121 270.356 414.523 268.777 412.888L259.007 403.122ZM224.171 388.873C224.171 380.752 230.753 374.17 238.873 374.17C246.992 374.17 253.575 380.752 253.575 388.873C253.575 396.993 246.992 403.576 238.873 403.576C230.757 403.566 224.18 396.989 224.171 388.873Z" fill="white"/>
</g>
<path fill-rule="evenodd" clip-rule="evenodd" d="M369.585 320C347.733 320.025 330.026 337.733 330 359.585C330 386.852 357.239 411.616 365.589 418.557C367.904 420.481 371.262 420.481 373.577 418.557C381.91 411.616 409.17 386.852 409.17 359.581C409.142 337.731 391.435 320.025 369.585 320ZM371.668 335.626C375.12 335.626 377.919 338.424 377.919 341.876C377.919 345.328 375.12 348.126 371.668 348.126C368.217 348.126 365.418 345.328 365.418 341.876C365.418 338.424 368.217 335.626 371.668 335.626ZM381.044 389.794C383.345 389.794 385.211 387.928 385.211 385.627C385.211 383.326 383.345 381.46 381.044 381.46H376.877V360.626C376.877 356.024 373.146 352.293 368.543 352.293H364.377C362.075 352.293 360.21 354.158 360.21 356.46C360.21 358.761 362.075 360.626 364.377 360.626H366.46C367.611 360.626 368.543 361.559 368.543 362.71V379.377C368.543 380.528 367.611 381.46 366.46 381.46H364.377C362.075 381.46 360.21 383.326 360.21 385.627C360.21 387.928 362.075 389.794 364.377 389.794H381.044Z" fill="white"/>
<g clip-path="url(#clip8)">
<path fill-rule="evenodd" clip-rule="evenodd" d="M474.447 340.516C472.544 338.65 472.514 335.594 474.381 333.69L486.388 321.448C486.906 320.919 487.517 320.535 488.168 320.296C488.544 320.158 488.942 320.065 489.356 320.024C490.063 319.954 490.782 320.04 491.459 320.281C492.098 320.509 492.698 320.876 493.214 321.381L505.456 333.388C507.36 335.255 507.389 338.311 505.523 340.214C503.656 342.118 500.6 342.147 498.697 340.281L494.774 336.434L495.162 376.311C495.217 382.015 499.886 386.595 505.591 386.54C511.296 386.484 515.875 381.815 515.82 376.11L515.702 363.985C515.595 352.949 524.454 343.916 535.49 343.808C546.526 343.701 555.56 352.561 555.667 363.597L556.055 403.474L559.902 399.551C561.769 397.648 564.825 397.618 566.728 399.485C568.631 401.352 568.661 404.408 566.795 406.311L554.788 418.554C554.704 418.639 554.617 418.722 554.527 418.8C554.497 418.826 554.467 418.852 554.437 418.878C553.611 419.569 552.549 419.989 551.388 420.001C550.037 420.014 548.81 419.471 547.926 418.585L535.719 406.613C533.816 404.746 533.786 401.69 535.653 399.787C537.519 397.884 540.576 397.854 542.479 399.721L546.401 403.567L546.014 363.691C545.958 357.986 541.289 353.407 535.584 353.462C529.88 353.517 525.3 358.187 525.355 363.892L525.473 376.016C525.581 387.052 516.721 396.086 505.685 396.193C494.649 396.3 485.615 387.441 485.508 376.405L485.12 336.527L481.273 340.45C479.407 342.353 476.35 342.383 474.447 340.516Z" fill="white"/>
</g>
<g clip-path="url(#clip9)">
<path fill-rule="evenodd" clip-rule="evenodd" d="M700.31 374.101C700.873 374.101 701.413 373.887 701.812 373.505C702.599 372.749 721 354.921 721 340.866C721 329.895 711.735 321 700.306 321C688.877 321 679.612 329.895 679.612 340.866C679.612 354.921 698.021 372.749 698.804 373.505C699.204 373.888 699.745 374.102 700.31 374.101ZM693.345 340.871C693.344 338.166 695.04 335.726 697.643 334.69C700.246 333.654 703.242 334.226 705.235 336.139C707.227 338.051 707.823 340.928 706.744 343.427C705.665 345.926 703.124 347.554 700.306 347.553C696.463 347.55 693.348 344.56 693.345 340.871ZM700.31 380.228C700.683 380.228 701.056 380.203 701.425 380.15H701.412C702.052 380.063 702.699 380.259 703.17 380.684C703.64 381.109 703.885 381.717 703.833 382.335C702.479 399.045 690.361 413.147 673.53 417.599C656.699 422.052 638.767 415.899 628.688 402.214C628.064 401.372 628.193 400.214 628.991 399.518C631.097 397.662 633.301 395.911 635.594 394.27C637.014 393.267 637.319 391.349 636.274 389.985C635.23 388.622 633.232 388.329 631.811 389.332C630.165 390.488 628.463 391.815 626.761 393.249C626.23 393.693 625.503 393.856 624.822 393.683C624.14 393.511 623.592 393.025 623.358 392.387C618.884 380.204 620.851 366.694 628.633 356.156C636.415 345.618 649.044 339.364 662.5 339.384C665.578 339.391 668.645 339.734 671.643 340.405C672.559 340.607 673.228 341.363 673.289 342.263C674.132 354.664 685.325 369.237 694.294 377.834C695.889 379.366 698.053 380.227 700.31 380.228ZM656.186 386.493C657.733 386.489 659.277 386.626 660.798 386.902C661.958 387.198 663.194 386.844 663.995 385.985C664.796 385.126 665.028 383.908 664.593 382.834C664.159 381.759 663.133 381.009 661.938 380.893C660.029 380.546 658.09 380.369 656.147 380.367C653.36 380.375 650.586 380.736 647.898 381.441C646.35 381.842 645.353 383.284 645.569 384.81C645.784 386.335 647.145 387.47 648.749 387.461C649.036 387.463 649.322 387.428 649.6 387.355C651.745 386.788 653.96 386.498 656.186 386.493ZM691.784 395.887C691.359 397.156 690.13 398.018 688.742 398.019C688.413 398.019 688.086 397.971 687.772 397.876C683.616 396.48 679.593 394.746 675.744 392.693C674.169 391.911 673.541 390.058 674.336 388.535C674.713 387.814 675.375 387.268 676.174 387.018C676.974 386.769 677.844 386.837 678.59 387.208L678.688 387.257C682.22 389.159 685.913 390.77 689.729 392.072C691.393 392.59 692.314 394.297 691.792 395.9L691.784 395.887Z" fill="white"/>
</g>
<g clip-path="url(#clip10)">
<path fill-rule="evenodd" clip-rule="evenodd" d="M779.338 386.698C779.338 387.849 780.271 388.782 781.422 388.782H810.604C810.604 388.828 810.604 394.914 810.891 397.12H779.338C774.733 397.12 771 393.387 771 388.782V332.506C771 330.204 772.866 328.337 775.169 328.337H784.549C785.7 328.337 786.633 329.27 786.633 330.422V338.759C786.633 340.486 788.033 341.885 789.76 341.885C791.486 341.885 792.886 340.486 792.886 338.759V323.126C792.886 321.4 794.286 320 796.013 320C797.74 320 799.139 321.4 799.139 323.126V327.295C799.139 327.871 799.606 328.337 800.182 328.337H817.899C819.05 328.337 819.983 329.27 819.983 330.422V338.759C819.983 340.486 821.383 341.885 823.11 341.885C824.837 341.885 826.237 340.486 826.237 338.759V323.126C826.237 321.4 827.636 320 829.363 320C831.09 320 832.49 321.4 832.49 323.126V327.295C832.49 327.871 832.956 328.337 833.532 328.337H843.954C846.256 328.337 848.123 330.204 848.123 332.506V359.885C845.897 359.602 839.827 359.602 839.785 359.602V351.265C839.785 350.114 838.852 349.18 837.701 349.18H781.422C780.271 349.18 779.338 350.114 779.338 351.265V386.698ZM858.87 401.976C865.653 392.145 863.82 378.764 854.644 371.119C845.468 363.473 831.975 364.086 823.529 372.531C815.084 380.977 814.471 394.469 822.117 403.645C829.763 412.821 843.144 414.653 852.975 407.871L863.935 418.83C865.571 420.41 868.171 420.387 869.779 418.779C871.387 417.171 871.41 414.571 869.83 412.935L858.87 401.976ZM825.194 388.907C825.194 380.783 831.781 374.196 839.906 374.196C848.031 374.196 854.618 380.783 854.618 388.907C854.618 397.032 848.031 403.618 839.906 403.618C831.785 403.609 825.204 397.028 825.194 388.907Z" fill="white"/>
</g>
<path fill-rule="evenodd" clip-rule="evenodd" d="M1004.33 370C1004.33 358.096 997.974 347.098 987.667 341.142V326.25C987.667 322.798 984.868 320 981.417 320H960.583C957.132 320 954.333 322.798 954.333 326.25V341.146C944.029 347.103 937.683 358.102 937.683 370.004C937.683 381.906 944.029 392.906 954.333 398.862V413.75C954.333 415.408 954.992 416.997 956.164 418.169C957.336 419.342 958.926 420 960.583 420H981.417C984.868 420 987.667 417.202 987.667 413.75V398.862C997.975 392.905 1004.33 381.906 1004.33 370ZM971 395C957.193 395 946 383.807 946 370C946 356.193 957.193 345 971 345C984.807 345 996 356.193 996 370C995.984 383.8 984.8 394.984 971 395ZM974.125 357.5V368.708L983.625 378.208C984.211 378.794 984.541 379.588 984.541 380.417C984.541 381.245 984.211 382.04 983.625 382.625C982.387 383.8 980.446 383.8 979.208 382.625L968.792 372.208C968.205 371.623 967.875 370.829 967.875 370V357.5C967.875 355.774 969.274 354.375 971 354.375C972.726 354.375 974.125 355.774 974.125 357.5Z" fill="white"/>
<path d="M1094.96 495C1097.26 495 1099.12 493.135 1099.12 490.833V478.333H1135.94L1144.96 487.346V490.833C1144.96 493.135 1146.82 495 1149.12 495C1151.43 495 1153.29 493.135 1153.29 490.833V485.621C1153.29 484.516 1152.85 483.456 1152.07 482.675L1141.83 472.446C1140.27 470.885 1138.15 470.006 1135.94 470H1099.12C1094.52 470 1090.79 473.731 1090.79 478.333V490.833C1090.79 493.135 1092.66 495 1094.96 495Z" fill="#87909C"/>
<path fill-rule="evenodd" clip-rule="evenodd" d="M1160.58 499.167H1081.42C1075.66 499.167 1071 503.83 1071 509.583V528.333C1071 534.086 1075.66 538.75 1081.42 538.75H1091.83V564.792C1091.84 567.667 1094.17 569.998 1097.04 570H1147.04C1149.92 569.998 1152.25 567.667 1152.25 564.792V538.75H1160.58C1163.35 538.75 1166 537.653 1167.95 535.699C1169.9 533.746 1171 531.096 1171 528.333V509.583C1171 506.821 1169.9 504.171 1167.95 502.218C1166 500.264 1163.35 499.167 1160.58 499.167ZM1085.58 517.917C1083.28 517.917 1081.42 516.051 1081.42 513.75C1081.42 511.449 1083.28 509.583 1085.58 509.583C1087.88 509.583 1089.75 511.449 1089.75 513.75C1089.75 516.051 1087.88 517.917 1085.58 517.917ZM1141.83 561.667C1142.98 561.667 1143.92 560.734 1143.92 559.583V521.904C1143.92 520.754 1142.98 519.821 1141.83 519.821H1102.25C1101.1 519.821 1100.17 520.754 1100.17 521.904V559.583C1100.17 560.734 1101.1 561.667 1102.25 561.667H1141.83Z" fill="#87909C"/>
<path d="M1133.5 531.454H1110.58C1108.86 531.454 1107.46 532.853 1107.46 534.579C1107.46 536.305 1108.86 537.704 1110.58 537.704H1133.5C1135.23 537.704 1136.63 536.305 1136.63 534.579C1136.63 532.853 1135.23 531.454 1133.5 531.454V531.454Z" fill="#87909C"/>
<path d="M1126.21 546.038H1110.58C1108.86 546.038 1107.46 547.437 1107.46 549.163C1107.46 550.889 1108.86 552.288 1110.58 552.288H1126.21C1127.93 552.288 1129.33 550.889 1129.33 549.163C1129.33 547.437 1127.93 546.038 1126.21 546.038V546.038Z" fill="#87909C"/>
<path fill-rule="evenodd" clip-rule="evenodd" d="M52.7725 470C49.735 470 47.2725 472.462 47.2725 475.5V539.155L43.014 548.281C42.9157 548.491 43.133 548.71 43.3445 548.614L50.3484 545.412C51.0797 545.772 51.9025 545.974 52.7725 545.974H109.954C112.992 545.974 115.454 543.511 115.454 540.474V475.5C115.454 472.462 112.992 470 109.954 470H52.7725ZM105.649 510.438C105.649 507.746 105.489 505.743 104.914 503.116L101.563 488.211C100.956 482.958 92.0188 479.806 81.1342 479.806C70.2496 479.806 61.312 482.958 60.7056 488.211L57.4178 503.116C56.8433 505.743 56.6198 507.746 56.6198 510.438V530.235H60.7056V534.438C60.7056 536.769 62.525 538.64 64.7913 538.64C67.0576 538.64 68.877 536.769 68.877 534.438V530.235H93.3914V534.438C93.3914 536.769 95.2108 538.64 97.4771 538.64C99.7434 538.64 101.563 536.769 101.563 534.438V530.235H105.649V510.438ZM67.6596 484.611C67.3835 484.611 67.1596 484.834 67.1596 485.111V489.955C67.1596 490.231 67.3835 490.455 67.6596 490.455H95.0687C95.3448 490.455 95.5687 490.231 95.5687 489.955V485.111C95.5687 484.834 95.3448 484.611 95.0687 484.611H67.6596ZM67.0291 495.139C67.1082 494.956 67.2886 494.838 67.4881 494.838H95.2399C95.4394 494.838 95.6197 494.956 95.6989 495.139L100.949 507.289C101.091 507.619 100.849 507.987 100.49 507.987H62.2383C61.8787 507.987 61.6367 507.619 61.7794 507.289L67.0291 495.139ZM68.5803 524.118C70.9338 524.118 72.8417 522.155 72.8417 519.735C72.8417 517.314 70.9338 515.352 68.5803 515.352C66.2268 515.352 64.319 517.314 64.319 519.735C64.319 522.155 66.2268 524.118 68.5803 524.118ZM98.4084 519.735C98.4084 522.155 96.5006 524.118 94.1471 524.118C91.7936 524.118 89.8857 522.155 89.8857 519.735C89.8857 517.314 91.7936 515.352 94.1471 515.352C96.5006 515.352 98.4084 517.314 98.4084 519.735ZM20.5177 523.167C20.9319 522.776 21.3462 522.483 21.9676 522.385L32.7386 520.038C33.36 519.941 33.8778 520.038 34.3957 520.234C35.0171 520.527 35.3278 520.918 35.5349 521.309L40.5061 532.26C40.7133 532.847 40.8168 533.335 40.6097 533.824C40.5061 534.313 40.1954 534.704 39.7812 534.998L32.2208 543.923C34.085 547.736 36.6741 551.158 39.7812 554.091C42.8882 557.122 46.513 559.468 50.5522 561.228L56.9733 551.325C57.3876 550.934 57.8019 550.641 58.3197 550.543C58.9411 550.446 59.4589 550.446 59.8732 550.641L71.4727 555.334C72.0942 555.53 72.5084 555.921 72.7156 556.41C73.0263 556.996 73.1298 557.485 72.9227 557.974L70.4371 568.142C70.4371 568.729 70.1264 569.218 69.6085 569.511C69.1943 569.902 68.6764 570 68.055 570C59.3554 570 51.2771 567.947 43.8203 563.84C36.5706 559.832 30.8744 554.356 26.5246 547.512C22.1747 540.473 19.9998 532.847 19.9998 524.634C19.9998 524.145 20.207 523.656 20.5177 523.167Z" fill="#87909C"/>
<g clip-path="url(#clip11)">
<path fill-rule="evenodd" clip-rule="evenodd" d="M201.84 557.451C207.495 560.221 213.708 561.663 220.005 561.667H220.038C220.489 561.665 220.928 561.811 221.288 562.084C223.15 563.476 225.17 564.643 227.308 565.559C228.168 565.927 228.678 566.823 228.553 567.751C228.429 568.678 227.701 569.409 226.774 569.538C218.134 570.725 209.333 569.616 201.257 566.321V566.404L200.595 566.079C176.713 556.018 164.477 529.375 172.409 504.702C180.341 480.029 205.81 465.508 231.08 471.251C256.351 476.994 273.044 501.096 269.535 526.774C269.407 527.701 268.676 528.429 267.748 528.553C266.821 528.677 265.924 528.168 265.556 527.307C260.452 515.091 247.686 507.92 234.598 509.917C233.003 509.025 231.206 508.553 229.378 508.546C223.051 508.546 217.921 503.417 217.921 497.089C217.921 490.761 223.051 485.631 229.378 485.631H239.864C240.338 485.631 240.751 485.311 240.87 484.853C240.99 484.394 240.785 483.913 240.372 483.682C229.151 477.368 215.638 476.609 203.78 481.627C191.922 486.644 183.057 496.871 179.773 509.321C179.69 509.633 179.757 509.966 179.953 510.222C180.15 510.478 180.454 510.629 180.777 510.629H192.925C202.83 510.656 211 518.396 211.56 528.286C210.393 531.319 209.744 534.526 209.639 537.773C208.507 540.062 206.921 542.096 204.978 543.752C202.618 545.726 201.255 548.645 201.257 551.722V556.514C201.257 556.912 201.483 557.275 201.84 557.451ZM259.007 553.122C258.334 552.448 258.204 551.403 258.691 550.585C264.612 540.578 262.164 527.727 252.977 520.599C243.791 513.471 230.736 514.291 222.514 522.514C214.293 530.736 213.472 543.792 220.6 552.979C227.728 562.166 240.577 564.614 250.584 558.693C251.403 558.207 252.448 558.339 253.121 559.013L262.886 568.779C264.521 570.358 267.119 570.336 268.726 568.729C270.333 567.121 270.356 564.523 268.777 562.888L259.007 553.122ZM224.171 538.873C224.171 530.752 230.753 524.17 238.873 524.17C246.992 524.17 253.575 530.752 253.575 538.873C253.575 546.993 246.992 553.576 238.873 553.576C230.757 553.566 224.18 546.989 224.171 538.873Z" fill="#87909C"/>
</g>
<path fill-rule="evenodd" clip-rule="evenodd" d="M369.585 470C347.733 470.025 330.026 487.733 330 509.585C330 536.852 357.239 561.616 365.589 568.557C367.904 570.481 371.262 570.481 373.577 568.557C381.91 561.616 409.17 536.852 409.17 509.581C409.142 487.731 391.435 470.025 369.585 470ZM371.668 485.626C375.12 485.626 377.919 488.424 377.919 491.876C377.919 495.328 375.12 498.126 371.668 498.126C368.217 498.126 365.418 495.328 365.418 491.876C365.418 488.424 368.217 485.626 371.668 485.626ZM381.044 539.794C383.345 539.794 385.211 537.928 385.211 535.627C385.211 533.326 383.345 531.46 381.044 531.46H376.877V510.626C376.877 506.024 373.146 502.293 368.543 502.293H364.377C362.075 502.293 360.21 504.158 360.21 506.46C360.21 508.761 362.075 510.626 364.377 510.626H366.46C367.611 510.626 368.543 511.559 368.543 512.71V529.377C368.543 530.528 367.611 531.46 366.46 531.46H364.377C362.075 531.46 360.21 533.326 360.21 535.627C360.21 537.928 362.075 539.794 364.377 539.794H381.044Z" fill="#87909C"/>
<g clip-path="url(#clip12)">
<path fill-rule="evenodd" clip-rule="evenodd" d="M474.447 490.517C472.544 488.65 472.514 485.594 474.381 483.691L486.388 471.448C486.906 470.919 487.517 470.535 488.168 470.296C488.544 470.158 488.942 470.065 489.356 470.024C490.063 469.954 490.782 470.04 491.459 470.282C492.098 470.509 492.698 470.876 493.214 471.382L505.456 483.389C507.36 485.255 507.389 488.311 505.523 490.215C503.656 492.118 500.6 492.148 498.697 490.281L494.774 486.434L495.162 526.311C495.217 532.016 499.886 536.595 505.591 536.54C511.296 536.484 515.875 531.815 515.82 526.11L515.702 513.986C515.595 502.95 524.454 493.916 535.49 493.809C546.526 493.702 555.56 502.561 555.667 513.597L556.055 553.474L559.902 549.552C561.769 547.648 564.825 547.619 566.728 549.485C568.631 551.352 568.661 554.408 566.795 556.311L554.788 568.554C554.704 568.64 554.617 568.722 554.527 568.8C554.497 568.827 554.467 568.853 554.437 568.878C553.611 569.569 552.549 569.99 551.388 570.001C550.037 570.014 548.81 569.471 547.926 568.585L535.719 556.613C533.816 554.747 533.786 551.691 535.653 549.787C537.519 547.884 540.576 547.854 542.479 549.721L546.401 553.568L546.014 513.691C545.958 507.986 541.289 503.407 535.584 503.462C529.88 503.518 525.3 508.187 525.355 513.892L525.473 526.017C525.581 537.053 516.721 546.086 505.685 546.193C494.649 546.301 485.615 537.441 485.508 526.405L485.12 486.528L481.273 490.45C479.407 492.354 476.35 492.383 474.447 490.517Z" fill="#87909C"/>
</g>
<g clip-path="url(#clip13)">
<path fill-rule="evenodd" clip-rule="evenodd" d="M700.31 524.101C700.873 524.101 701.413 523.887 701.812 523.505C702.599 522.749 721 504.921 721 490.866C721 479.895 711.735 471 700.306 471C688.877 471 679.612 479.895 679.612 490.866C679.612 504.921 698.021 522.749 698.804 523.505C699.204 523.888 699.745 524.102 700.31 524.101ZM693.345 490.871C693.344 488.166 695.04 485.726 697.643 484.69C700.246 483.654 703.242 484.226 705.235 486.139C707.227 488.051 707.823 490.928 706.744 493.427C705.665 495.926 703.124 497.554 700.306 497.553C696.463 497.55 693.348 494.56 693.345 490.871ZM700.31 530.228C700.683 530.228 701.056 530.203 701.425 530.15H701.412C702.052 530.063 702.699 530.259 703.17 530.684C703.64 531.109 703.885 531.717 703.833 532.335C702.479 549.045 690.361 563.147 673.53 567.599C656.699 572.052 638.767 565.899 628.688 552.214C628.064 551.372 628.193 550.214 628.991 549.518C631.097 547.662 633.301 545.911 635.594 544.27C637.014 543.267 637.319 541.349 636.274 539.985C635.23 538.622 633.232 538.329 631.811 539.332C630.165 540.488 628.463 541.815 626.761 543.249C626.23 543.693 625.503 543.856 624.822 543.683C624.14 543.511 623.592 543.025 623.358 542.387C618.884 530.204 620.851 516.694 628.633 506.156C636.415 495.618 649.044 489.364 662.5 489.384C665.578 489.391 668.645 489.734 671.643 490.405C672.559 490.607 673.228 491.363 673.289 492.263C674.132 504.664 685.325 519.237 694.294 527.834C695.889 529.366 698.053 530.227 700.31 530.228ZM656.186 536.493C657.733 536.489 659.277 536.626 660.798 536.902C661.958 537.198 663.194 536.844 663.995 535.985C664.796 535.126 665.028 533.908 664.593 532.834C664.159 531.759 663.133 531.009 661.938 530.893C660.029 530.546 658.09 530.369 656.147 530.367C653.36 530.375 650.586 530.736 647.898 531.441C646.35 531.842 645.353 533.284 645.569 534.81C645.784 536.335 647.145 537.47 648.749 537.461C649.036 537.463 649.322 537.428 649.6 537.355C651.745 536.788 653.96 536.498 656.186 536.493ZM691.784 545.887C691.359 547.156 690.13 548.018 688.742 548.019C688.413 548.019 688.086 547.971 687.772 547.876C683.616 546.48 679.593 544.746 675.744 542.693C674.169 541.911 673.541 540.058 674.336 538.535C674.713 537.814 675.375 537.268 676.174 537.018C676.974 536.769 677.844 536.837 678.59 537.208L678.688 537.257C682.22 539.159 685.913 540.77 689.729 542.072C691.393 542.59 692.314 544.297 691.792 545.9L691.784 545.887Z" fill="#87909C"/>
</g>
<g clip-path="url(#clip14)">
<path fill-rule="evenodd" clip-rule="evenodd" d="M779.338 536.698C779.338 537.849 780.271 538.782 781.422 538.782H810.604C810.604 538.828 810.604 544.914 810.891 547.12H779.338C774.733 547.12 771 543.387 771 538.782V482.506C771 480.204 772.866 478.337 775.169 478.337H784.549C785.7 478.337 786.633 479.27 786.633 480.422V488.759C786.633 490.486 788.033 491.885 789.76 491.885C791.486 491.885 792.886 490.486 792.886 488.759V473.126C792.886 471.4 794.286 470 796.013 470C797.74 470 799.139 471.4 799.139 473.126V477.295C799.139 477.871 799.606 478.337 800.182 478.337H817.899C819.05 478.337 819.983 479.27 819.983 480.422V488.759C819.983 490.486 821.383 491.885 823.11 491.885C824.837 491.885 826.237 490.486 826.237 488.759V473.126C826.237 471.4 827.636 470 829.363 470C831.09 470 832.49 471.4 832.49 473.126V477.295C832.49 477.871 832.956 478.337 833.532 478.337H843.954C846.256 478.337 848.123 480.204 848.123 482.506V509.885C845.897 509.602 839.827 509.602 839.785 509.602V501.265C839.785 500.114 838.852 499.18 837.701 499.18H781.422C780.271 499.18 779.338 500.114 779.338 501.265V536.698ZM858.87 551.976C865.653 542.145 863.82 528.764 854.644 521.119C845.468 513.473 831.975 514.086 823.529 522.531C815.084 530.977 814.471 544.469 822.117 553.645C829.763 562.821 843.144 564.653 852.975 557.871L863.935 568.83C865.571 570.41 868.171 570.387 869.779 568.779C871.387 567.171 871.41 564.571 869.83 562.935L858.87 551.976ZM825.194 538.907C825.194 530.783 831.781 524.196 839.906 524.196C848.031 524.196 854.618 530.783 854.618 538.907C854.618 547.032 848.031 553.618 839.906 553.618C831.785 553.609 825.204 547.028 825.194 538.907Z" fill="#87909C"/>
</g>
<path fill-rule="evenodd" clip-rule="evenodd" d="M1004.33 520C1004.33 508.096 997.974 497.098 987.667 491.142V476.25C987.667 472.798 984.868 470 981.417 470H960.583C957.132 470 954.333 472.798 954.333 476.25V491.146C944.029 497.103 937.683 508.102 937.683 520.004C937.683 531.906 944.029 542.906 954.333 548.862V563.75C954.333 565.408 954.992 566.997 956.164 568.169C957.336 569.342 958.926 570 960.583 570H981.417C984.868 570 987.667 567.202 987.667 563.75V548.862C997.975 542.905 1004.33 531.906 1004.33 520ZM971 545C957.193 545 946 533.807 946 520C946 506.193 957.193 495 971 495C984.807 495 996 506.193 996 520C995.984 533.8 984.8 544.984 971 545ZM974.125 507.5V518.708L983.625 528.208C984.211 528.794 984.541 529.588 984.541 530.417C984.541 531.245 984.211 532.04 983.625 532.625C982.387 533.8 980.446 533.8 979.208 532.625L968.792 522.208C968.205 521.623 967.875 520.829 967.875 520V507.5C967.875 505.774 969.274 504.375 971 504.375C972.726 504.375 974.125 505.774 974.125 507.5Z" fill="#87909C"/>
<path d="M1406 46.0916V203.81" stroke="#8C9499" stroke-width="2.5" stroke-linecap="round"/>
<path d="M1409.26 49.0511C1407.9 51.404 1404.51 51.404 1403.15 49.0511L1390.73 27.544C1389.37 25.1911 1391.07 22.25 1393.79 22.25L1418.62 22.25C1421.34 22.25 1423.04 25.1911 1421.68 27.544L1409.26 49.0511Z" fill="white" stroke="#59C276" stroke-width="2.5"/>
<path d="M1422.28 200.669C1422.91 201.766 1422.91 203.121 1422.28 204.218L1415.63 215.995C1415.01 217.089 1413.87 217.75 1412.66 217.75H1399.34C1398.13 217.75 1396.99 217.089 1396.37 215.995L1389.72 204.218C1389.09 203.121 1389.09 201.766 1389.72 200.669L1396.37 188.893C1396.99 187.798 1398.13 187.138 1399.34 187.138L1412.66 187.138C1413.87 187.138 1415.01 187.798 1415.63 188.893L1422.28 200.669Z" fill="white" stroke="#8C9499" stroke-width="2.5"/>
<circle cx="1406.46" cy="118.977" r="31.4555" fill="white" stroke="#8C9499" stroke-width="4"/>
<path d="M1399.73 106.733L1395.12 102.215L1390.6 106.822" stroke="#8C9499" stroke-width="4" stroke-linecap="round" stroke-linejoin="round"/>
<path d="M1413.66 131.69L1418.26 136.208L1422.78 131.602" stroke="#8C9499" stroke-width="4" stroke-linecap="round" stroke-linejoin="round"/>
<path d="M1395.12 102.215L1395.31 121.603C1395.34 124.753 1397.92 127.281 1401.07 127.25C1404.22 127.22 1406.74 124.642 1406.71 121.493L1406.67 116.931C1406.64 113.781 1409.17 111.203 1412.32 111.173C1415.46 111.142 1418.04 113.671 1418.07 116.82L1418.26 136.208" stroke="#8C9499" stroke-width="4" stroke-linecap="round" stroke-linejoin="round"/>
<g opacity="0.5">
<path d="M1526 46.0916V203.81" stroke="#8C9499" stroke-width="2.5" stroke-linecap="round"/>
<path d="M1529.26 49.0511C1527.9 51.404 1524.51 51.404 1523.15 49.0511L1510.73 27.544C1509.37 25.1911 1511.07 22.25 1513.79 22.25L1538.62 22.25C1541.34 22.25 1543.04 25.1911 1541.68 27.544L1529.26 49.0511Z" fill="white" stroke="#59C276" stroke-width="2.5"/>
<path d="M1542.28 200.669C1542.91 201.766 1542.91 203.121 1542.28 204.218L1535.63 215.995C1535.01 217.089 1533.87 217.75 1532.66 217.75H1519.34C1518.13 217.75 1516.99 217.089 1516.37 215.995L1509.72 204.218C1509.09 203.121 1509.09 201.766 1509.72 200.669L1516.37 188.893C1516.99 187.798 1518.13 187.138 1519.34 187.138L1532.66 187.138C1533.87 187.138 1535.01 187.798 1535.63 188.893L1542.28 200.669Z" fill="white" stroke="#8C9499" stroke-width="2.5"/>
</g>
<circle cx="1526.46" cy="118.977" r="31.4555" fill="white" stroke="#8C9499" stroke-width="4"/>
<path d="M1519.73 106.733L1515.12 102.215L1510.6 106.822" stroke="#8C9499" stroke-width="4" stroke-linecap="round" stroke-linejoin="round"/>
<path d="M1533.66 131.69L1538.26 136.208L1542.78 131.602" stroke="#8C9499" stroke-width="4" stroke-linecap="round" stroke-linejoin="round"/>
<path d="M1515.12 102.215L1515.31 121.603C1515.34 124.753 1517.92 127.281 1521.07 127.25C1524.22 127.22 1526.74 124.642 1526.71 121.493L1526.67 116.931C1526.64 113.781 1529.17 111.203 1532.32 111.173C1535.46 111.142 1538.04 113.671 1538.07 116.82L1538.26 136.208" stroke="#8C9499" stroke-width="4" stroke-linecap="round" stroke-linejoin="round"/>
<path d="M1258.5 82.3249C1258.5 82.6015 1258.39 82.8671 1258.2 83.0627C1258 83.2583 1257.73 83.3677 1257.46 83.3666H1243.92C1242.26 83.3654 1240.76 84.3477 1240.09 85.8678C1239.43 87.3879 1239.73 89.1563 1240.86 90.3707L1266.53 118.012C1267.68 119.26 1269.3 119.97 1271 119.97C1272.7 119.97 1274.32 119.26 1275.47 118.012L1301.14 90.3707C1302.27 89.1563 1302.57 87.3879 1301.91 85.8678C1301.24 84.3477 1299.74 83.3654 1298.08 83.3666H1284.54C1284.27 83.3677 1284 83.2583 1283.8 83.0627C1283.61 82.8671 1283.5 82.6015 1283.5 82.3249V61.6957C1283.5 59.3945 1281.63 57.5291 1279.33 57.5291H1262.67C1260.37 57.5291 1258.5 59.3945 1258.5 61.6957V82.3249Z" fill="white"/>
<path d="M1258.5 82.3249C1258.5 82.6015 1258.39 82.8671 1258.2 83.0627C1258 83.2583 1257.73 83.3677 1257.46 83.3666H1243.92C1242.26 83.3654 1240.76 84.3477 1240.09 85.8678C1239.43 87.3879 1239.73 89.1563 1240.86 90.3707L1266.53 118.012C1267.68 119.26 1269.3 119.97 1271 119.97C1272.7 119.97 1274.32 119.26 1275.47 118.012L1301.14 90.3707C1302.27 89.1563 1302.57 87.3879 1301.91 85.8678C1301.24 84.3477 1299.74 83.3654 1298.08 83.3666H1284.54C1284.27 83.3677 1284 83.2583 1283.8 83.0627C1283.61 82.8671 1283.5 82.6015 1283.5 82.3249V61.6957C1283.5 59.3945 1281.63 57.5291 1279.33 57.5291H1262.67C1260.37 57.5291 1258.5 59.3945 1258.5 61.6957V82.3249Z" fill="#DADADA" fill-opacity="0.2"/>
<path d="M1258.5 82.3249C1258.5 82.6015 1258.39 82.8671 1258.2 83.0627C1258 83.2583 1257.73 83.3677 1257.46 83.3666H1243.92C1242.26 83.3654 1240.76 84.3477 1240.09 85.8678C1239.43 87.3879 1239.73 89.1563 1240.86 90.3707L1266.53 118.012C1267.68 119.26 1269.3 119.97 1271 119.97C1272.7 119.97 1274.32 119.26 1275.47 118.012L1301.14 90.3707C1302.27 89.1563 1302.57 87.3879 1301.91 85.8678C1301.24 84.3477 1299.74 83.3654 1298.08 83.3666H1284.54C1284.27 83.3677 1284 83.2583 1283.8 83.0627C1283.61 82.8671 1283.5 82.6015 1283.5 82.3249V61.6957C1283.5 59.3945 1281.63 57.5291 1279.33 57.5291H1262.67C1260.37 57.5291 1258.5 59.3945 1258.5 61.6957V82.3249Z" fill="#3475B4" fill-opacity="0.1"/>
<path d="M1258.5 39.7791C1258.5 39.2268 1258.95 38.7791 1259.5 38.7791H1282.5C1283.05 38.7791 1283.5 39.2268 1283.5 39.7791V50.2791C1283.5 50.8313 1283.05 51.2791 1282.5 51.2791H1259.5C1258.95 51.2791 1258.5 50.8313 1258.5 50.2791V39.7791Z" fill="white"/>
<path d="M1258.5 39.7791C1258.5 39.2268 1258.95 38.7791 1259.5 38.7791H1282.5C1283.05 38.7791 1283.5 39.2268 1283.5 39.7791V50.2791C1283.5 50.8313 1283.05 51.2791 1282.5 51.2791H1259.5C1258.95 51.2791 1258.5 50.8313 1258.5 50.2791V39.7791Z" fill="#DADADA" fill-opacity="0.2"/>
<path d="M1258.5 39.7791C1258.5 39.2268 1258.95 38.7791 1259.5 38.7791H1282.5C1283.05 38.7791 1283.5 39.2268 1283.5 39.7791V50.2791C1283.5 50.8313 1283.05 51.2791 1282.5 51.2791H1259.5C1258.95 51.2791 1258.5 50.8313 1258.5 50.2791V39.7791Z" fill="#3475B4" fill-opacity="0.1"/>
<path d="M1258.5 21.0291C1258.5 20.4768 1258.95 20.0291 1259.5 20.0291H1282.5C1283.05 20.0291 1283.5 20.4768 1283.5 21.0291V31.5291C1283.5 32.0813 1283.05 32.5291 1282.5 32.5291H1259.5C1258.95 32.5291 1258.5 32.0813 1258.5 31.5291V21.0291Z" fill="white"/>
<path d="M1258.5 21.0291C1258.5 20.4768 1258.95 20.0291 1259.5 20.0291H1282.5C1283.05 20.0291 1283.5 20.4768 1283.5 21.0291V31.5291C1283.5 32.0813 1283.05 32.5291 1282.5 32.5291H1259.5C1258.95 32.5291 1258.5 32.0813 1258.5 31.5291V21.0291Z" fill="#DADADA" fill-opacity="0.2"/>
<path d="M1258.5 21.0291C1258.5 20.4768 1258.95 20.0291 1259.5 20.0291H1282.5C1283.05 20.0291 1283.5 20.4768 1283.5 21.0291V31.5291C1283.5 32.0813 1283.05 32.5291 1282.5 32.5291H1259.5C1258.95 32.5291 1258.5 32.0813 1258.5 31.5291V21.0291Z" fill="#3475B4" fill-opacity="0.1"/>
<defs>
<clipPath id="clip0">
<rect width="100" height="100" fill="white" transform="translate(170 20)"/>
</clipPath>
<clipPath id="clip1">
<rect width="100" height="100" fill="white" transform="translate(621 20)"/>
</clipPath>
<clipPath id="clip2">
<rect width="100" height="100" fill="white" transform="translate(771 20)"/>
</clipPath>
<clipPath id="clip3">
<rect width="100" height="100" fill="white" transform="translate(170 170)"/>
</clipPath>
<clipPath id="clip4">
<rect width="100" height="100" fill="white" transform="translate(471 170)"/>
</clipPath>
<clipPath id="clip5">
<rect width="100" height="100" fill="white" transform="translate(621 170)"/>
</clipPath>
<clipPath id="clip6">
<rect width="100" height="100" fill="white" transform="translate(771 170)"/>
</clipPath>
<clipPath id="clip7">
<rect width="100" height="100" fill="white" transform="translate(170 320)"/>
</clipPath>
<clipPath id="clip8">
<rect width="100" height="100" fill="white" transform="translate(471 320.001)"/>
</clipPath>
<clipPath id="clip9">
<rect width="100" height="100" fill="white" transform="translate(621 320)"/>
</clipPath>
<clipPath id="clip10">
<rect width="100" height="100" fill="white" transform="translate(771 320)"/>
</clipPath>
<clipPath id="clip11">
<rect width="100" height="100" fill="white" transform="translate(170 470)"/>
</clipPath>
<clipPath id="clip12">
<rect width="100" height="100" fill="white" transform="translate(471 470.001)"/>
</clipPath>
<clipPath id="clip13">
<rect width="100" height="100" fill="white" transform="translate(621 470)"/>
</clipPath>
<clipPath id="clip14">
<rect width="100" height="100" fill="white" transform="translate(771 470)"/>
</clipPath>
</defs>
</svg>
